<?xml version="1.0" encoding="UTF-8"?>
<svg id="LOGOTIPO_HORI_P" xmlns="http://www.w3.org/2000/svg" viewBox="0 0 925 264">
  <defs>
    <style>
      .cls-1 {
        fill: #212b2d;
        stroke-width: 0px;
      }
    </style>
  </defs>
  <g id="LOGOTIPO_LUMOUS">
    <g id="SIMBOLO">
      <g id="FIRE_SIMBOLO">
        <path id="FIRE_2" class="cls-1" d="M82.97,68.98c-2.17-29.18,9.92-51.16,15.2-59.61,5.11,46.22,21.78,71.04,36.63,85.26,19.01,18.2,34.37,18.4,46.74,40.17,9.86,17.36,14.98,43.45,4.38,68.28-9.9,23.18-28.79,34.25-35.13,37.62,11.83-45.02,3.84-68.75-6.13-82.17-12.52-16.85-27.78-16.91-44.18-40.9-15.22-22.25-17.18-44.24-17.5-48.66Z"/>
        <path id="FIRE_1" class="cls-1" d="M59.94,213.31c-4.27-3.1-15.16-11.75-22.27-27.02-2.27-4.86-5.73-13.77-6.57-28.48-2.1-36.49,14.71-59.81,10.22-62.44-4.14-2.43-20.58,14.37-30.31,33.59-3.61,7.13-9.98,20.04-10.22,37.98-.38,28.56,14.84,48.14,18.99,53.31,4.69,5.86,9.68,10.62,14.82,14.53,7.29,5.56,20.74,13.03,37.4,16.87,28.51,6.57,53.82,1.02,64.63-4.38,0,0-2.68-10.97-4.76-19.75-.65-2.72-4.27-4.73-7.17-3.87-23.12,6.83-42.11.62-44.3-.11-8.54-2.85-14.75-6.09-20.45-10.22Z"/>
      </g>
      <g id="HOME_SIMBOLO">
        <polygon id="TELHADO" class="cls-1" points="91.59 152.11 136.26 177.9 136.26 172.12 116.23 160.55 116.23 147.46 111.22 147.46 111.22 157.66 91.59 146.33 46.77 172.2 46.77 172.2 46.77 177.93 46.82 177.96 91.59 152.11"/>
        <rect id="PORTA" class="cls-1" x="65.99" y="174.28" width="16.09" height="27.51"/>
        <g id="JANELAS">
          <rect id="JANELA_4" class="cls-1" x="106.81" y="174.28" width="10.01" height="9.92"/>
          <rect id="JANELA_3" class="cls-1" x="93.92" y="174.28" width="10.01" height="9.92"/>
          <rect id="JANELA_2" class="cls-1" x="106.81" y="187.17" width="10.01" height="9.92"/>
          <rect id="JANELA_1" class="cls-1" x="93.92" y="187.17" width="10.01" height="9.92"/>
        </g>
      </g>
    </g>
    <g>
      <g id="LOGOTIPO">
        <path class="cls-1" d="M514.52,79.91c-16.45,0-29.79,14.87-29.79,33.2s13.34,33.2,29.79,33.2,29.79-14.87,29.79-33.2-13.34-33.2-29.79-33.2ZM529.27,117.89c-1.47,4.9-6.46,14.98-14.84,15.01-9.26.04-17.33-12.17-14.45-18.02,1.09-2.2,4.04-4.08,7.03-3.89,3.36.22,6.46,3.03,7.42,7.06,4.09-4.49,3.31-10.47,0-12.89-3.65-2.67-11.28-1.68-14.84,4.06,1.63-7.13,4.46-9.57,6.84-10.42,2.53-.91,5.46-.35,5.86-1.41.37-.97-1.67-2.48-3.4-3.58,1.85-.28,9.07-1.18,14.92,2.88,9.58,6.64,5.87,19.88,5.47,21.19Z"/>
        <path class="cls-1" d="M322.38,147.84c-4.13-.09-10.12-.21-13.11-4.14-3.75-4.93,1.16-10.67,2.76-27.59.68-7.21,1.12-12.42-.69-18.63-2.36-8.08-7.33-13.63-10.86-16.86,3.85-.97,9.96-1.91,17.06-.38,3.86.83,6.32,2.15,8.97,4.83,3.85,3.89,4.83,8.97,4.83,11.04,0,4.14-.38,5.45-1.38,12.42-.69,4.83-.47,8.34,0,11.73.56,4.04,1.17,7.98,3.88,9.19,1.45.64,2.5.36,3.71-.22,5.4-2.61,5.31-14.2,4.83-21.39-.43-6.46-2.48-16.11-6.92-27.59h29.98c-2.4,8.42-4.84,20.45-4.61,34.98.2,12.7,2.39,22.63,4.61,30.43-7.69.04-15.38.07-23.06.11v-5.17c-2.49,2.04-9.8,7.47-20.01,7.26Z"/>
        <path class="cls-1" d="M568.57,147.84c-4.13-.09-10.12-.21-13.11-4.14-3.75-4.93,1.16-10.67,2.76-27.59.68-7.21,1.12-12.42-.69-18.63-2.36-8.08-7.33-13.63-10.86-16.86,3.85-.97,9.96-1.91,17.06-.38,3.86.83,6.32,2.15,8.97,4.83,3.85,3.89,4.83,8.97,4.83,11.04,0,4.14-.38,5.45-1.38,12.42-.69,4.83-.47,8.34,0,11.73.56,4.04,1.17,7.98,3.88,9.19,1.45.64,2.5.36,3.71-.22,5.4-2.61,5.31-14.2,4.83-21.39-.43-6.46-2.48-16.11-6.92-27.59h29.98c-2.4,8.42-4.84,20.45-4.61,34.98.2,12.7,2.39,22.63,4.61,30.43-7.69.04-15.38.07-23.06.11v-5.17c-2.49,2.04-9.8,7.47-20.01,7.26Z"/>
        <path class="cls-1" d="M467.02,87.69c8.55,8.86,5.28,25.61,7.06,43.8.31,3.12.69,5.6.87,6.68.54,3.17,1.56,7.4,1.56,7.4h-21.45v-32.7c0-9.74-3.59-15.27-9.21-15.27-6.18,0-10.67,6.03-10.67,16.51v31.45h-17.99v-32.7c0-9.74-3.46-15.27-9.16-15.27-6.26,0-10.72,6.03-10.72,16.51v31.45h-21.32c1.15-5.23,2.1-9.09,2.72-15.5,1.86-19.41.01-36.4-2.72-49.84h20.37v7.21c1.18-.82,11.02-8.26,22.62-4.7,6.04,1.85,9.72,5.82,11.3,7.77,1.92-2.13,5.88-5.92,12.01-7.77,7.91-2.39,18.67-1.33,24.73,4.95Z"/>
        <path class="cls-1" d="M620.12,141.09l7.01-15.99c6.15,3.81,15.13,6.15,23.25,6.15s10.46-1.72,10.46-4.55c0-8.98-39.37,1.23-39.37-25.47,0-12.55,11.56-22.14,32.48-22.14,9.35,0,19.68,1.97,26.33,5.66l-7.01,15.87c-6.64-3.69-13.29-4.92-19.19-4.92-7.87,0-10.7,2.21-10.7,4.67,0,9.23,39.24-.74,39.24,25.71,0,12.3-11.32,21.9-32.97,21.9-11.32,0-23.01-2.83-29.53-6.89Z"/>
        <path class="cls-1" d="M240.18,70.77h23.58c-.9,8.1-2.01,18.97-3.05,31.86-1.59,19.82-1.32,23.55,1.42,26.19,8.37,8.1,23.6-5.68,32.57,2.83,3.9,3.7,4.07,9.97,3.54,14.87h-58.76c1.78-9.51,3.21-20.7,3.54-33.27.41-15.55-.96-31.32-2.83-42.48Z"/>
      </g>
      <g>
        <path class="cls-1" d="M277.8,204.27h-2.69c-.32,0-.58-.09-.78-.26s-.36-.39-.48-.66l-5.66-14.01h-23.69l-5.66,14.01c-.09.25-.25.47-.48.65-.23.18-.5.27-.82.27h-2.66l19.74-48.23h3.44l19.74,48.23ZM267.13,186.75l-9.82-24.37c-.34-.8-.67-1.75-.99-2.86-.14.55-.28,1.06-.44,1.55-.16.49-.33.94-.51,1.35l-9.82,24.34h21.58Z"/>
        <path class="cls-1" d="M309.67,170.35v33.92h-1.81c-.57,0-.9-.29-.99-.89l-.31-5.04c-1.57,1.95-3.38,3.52-5.44,4.7s-4.35,1.77-6.87,1.77c-1.89,0-3.53-.3-4.94-.89-1.41-.59-2.58-1.44-3.51-2.56-.93-1.11-1.64-2.45-2.11-4.02-.48-1.57-.72-3.34-.72-5.32v-21.68h3.27v21.68c0,3.18.73,5.68,2.18,7.48,1.45,1.81,3.67,2.71,6.65,2.71,2.2,0,4.27-.56,6.19-1.69,1.92-1.12,3.63-2.69,5.13-4.69v-25.5h3.27Z"/>
        <path class="cls-1" d="M330.09,204.81c-2.3,0-4.08-.64-5.37-1.91-1.28-1.27-1.93-3.24-1.93-5.9v-23.18h-4.87c-.25,0-.45-.07-.61-.2s-.24-.33-.24-.58v-1.26l5.79-.41.82-12.14c.05-.2.14-.39.27-.55.14-.16.33-.24.58-.24h1.53v12.95h10.7v2.42h-10.7v23.01c0,.93.12,1.73.36,2.4.24.67.57,1.22.99,1.65s.91.75,1.48.95c.57.2,1.18.31,1.84.31.82,0,1.52-.12,2.11-.36.59-.24,1.1-.5,1.53-.78.43-.28.78-.55,1.06-.78.27-.24.49-.36.65-.36.18,0,.36.11.55.34l.89,1.43c-.86.95-1.96,1.72-3.29,2.3-1.33.58-2.71.87-4.14.87Z"/>
        <path class="cls-1" d="M357.5,169.8c2.43,0,4.61.42,6.53,1.24,1.92.83,3.54,2.01,4.86,3.53,1.32,1.52,2.32,3.36,3.02,5.5.69,2.15,1.04,4.55,1.04,7.21s-.35,5.06-1.04,7.19c-.69,2.14-1.7,3.97-3.02,5.49-1.32,1.52-2.94,2.69-4.86,3.51-1.92.82-4.1,1.23-6.53,1.23s-4.61-.41-6.53-1.23c-1.92-.82-3.55-1.99-4.87-3.51-1.33-1.52-2.34-3.35-3.03-5.49-.69-2.14-1.04-4.53-1.04-7.19s.35-5.06,1.04-7.21c.69-2.15,1.7-3.98,3.03-5.5,1.33-1.52,2.95-2.7,4.87-3.53,1.92-.83,4.1-1.24,6.53-1.24ZM357.5,202.15c2.02,0,3.79-.35,5.3-1.04,1.51-.69,2.77-1.69,3.78-2.98,1.01-1.3,1.77-2.86,2.27-4.69.5-1.83.75-3.88.75-6.15s-.25-4.29-.75-6.14c-.5-1.84-1.26-3.41-2.27-4.72-1.01-1.31-2.27-2.31-3.78-3.02-1.51-.7-3.28-1.06-5.3-1.06s-3.79.35-5.3,1.06c-1.51.7-2.77,1.71-3.78,3.02-1.01,1.31-1.77,2.88-2.28,4.72-.51,1.84-.77,3.89-.77,6.14s.26,4.32.77,6.15c.51,1.83,1.27,3.39,2.28,4.69,1.01,1.3,2.27,2.29,3.78,2.98,1.51.69,3.28,1.04,5.3,1.04Z"/>
        <path class="cls-1" d="M382.11,204.27v-33.92h1.81c.57,0,.9.28.99.85l.31,4.91c1.32-1.89,2.83-3.41,4.53-4.57,1.7-1.16,3.62-1.74,5.76-1.74,2.48,0,4.46.72,5.95,2.15,1.49,1.43,2.49,3.42,3.02,5.97.41-1.39.98-2.59,1.72-3.61.74-1.02,1.58-1.87,2.54-2.54s1.99-1.16,3.12-1.48c1.12-.32,2.28-.48,3.46-.48,1.68,0,3.19.28,4.53.84,1.34.56,2.48,1.38,3.41,2.47s1.65,2.43,2.15,4.02c.5,1.59.75,3.41.75,5.45v21.68h-3.24v-21.68c0-3.32-.72-5.85-2.15-7.58-1.43-1.74-3.48-2.61-6.14-2.61-1.18,0-2.31.22-3.39.65-1.08.43-2.03,1.07-2.86,1.93-.83.85-1.49,1.91-1.98,3.19-.49,1.27-.73,2.75-.73,4.43v21.68h-3.27v-21.68c0-3.29-.65-5.82-1.96-7.57-1.31-1.75-3.22-2.62-5.74-2.62-1.84,0-3.54.55-5.11,1.64-1.57,1.09-2.97,2.6-4.19,4.53v25.7h-3.27Z"/>
        <path class="cls-1" d="M436.04,175.16c1.77-1.77,3.64-3.11,5.59-4.02,1.95-.91,4.17-1.36,6.65-1.36,1.82,0,3.41.29,4.77.87,1.36.58,2.49,1.41,3.39,2.49.9,1.08,1.57,2.39,2.03,3.92.45,1.53.68,3.24.68,5.13v22.09h-1.3c-.68,0-1.1-.32-1.26-.95l-.48-4.36c-.93.91-1.86,1.73-2.78,2.45-.92.73-1.88,1.34-2.88,1.84-1,.5-2.08.89-3.24,1.16-1.16.27-2.43.41-3.82.41-1.16,0-2.28-.17-3.37-.51s-2.06-.86-2.91-1.57c-.85-.7-1.53-1.61-2.04-2.71-.51-1.1-.77-2.43-.77-3.97,0-1.43.41-2.76,1.23-3.99.82-1.23,2.1-2.29,3.85-3.2,1.75-.91,3.99-1.64,6.73-2.18,2.74-.55,6.03-.86,9.87-.95v-3.54c0-3.14-.68-5.55-2.03-7.24-1.35-1.69-3.36-2.54-6.02-2.54-1.64,0-3.03.23-4.18.68-1.15.46-2.12.95-2.91,1.5-.8.55-1.44,1.05-1.94,1.5s-.92.68-1.26.68c-.25,0-.45-.06-.61-.17-.16-.11-.3-.26-.41-.44l-.58-.99ZM455.98,187.87c-3.23.11-6.01.37-8.33.77-2.33.4-4.25.94-5.76,1.62-1.51.68-2.63,1.49-3.36,2.44-.73.94-1.09,2.02-1.09,3.22,0,1.14.19,2.12.56,2.95.38.83.87,1.51,1.5,2.05.62.53,1.35.93,2.16,1.18.82.25,1.67.38,2.56.38,1.32,0,2.53-.14,3.63-.43,1.1-.28,2.12-.68,3.07-1.19.94-.51,1.82-1.12,2.64-1.82.82-.7,1.62-1.47,2.42-2.28v-8.86Z"/>
        <path class="cls-1" d="M494.12,199.9c-.98,1.27-2.36,2.34-4.16,3.2-1.8.86-3.83,1.39-6.1,1.57l-.89,2.79c2.07.34,3.63.86,4.69,1.55,1.06.69,1.58,1.71,1.58,3.05,0,.68-.15,1.29-.46,1.84-.31.55-.74,1.01-1.3,1.38-.56.38-1.22.66-1.99.85-.77.19-1.61.29-2.52.29s-1.84-.13-2.73-.39c-.89-.26-1.62-.61-2.22-1.04l.34-.95c.14-.25.32-.38.55-.38.11,0,.27.06.46.19.19.12.44.26.75.39.31.14.69.27,1.14.39s1.01.19,1.67.19c1.18,0,2.09-.25,2.73-.75.64-.5.95-1.17.95-2.01,0-.57-.15-1.05-.44-1.43-.3-.39-.71-.7-1.24-.94-.53-.24-1.17-.43-1.91-.58-.74-.15-1.55-.28-2.44-.39l1.3-4.02c-2.07-.09-3.95-.55-5.66-1.36-1.7-.82-3.17-1.97-4.4-3.46-1.23-1.49-2.18-3.29-2.86-5.4-.68-2.11-1.02-4.51-1.02-7.19s.34-4.95,1.02-7.09c.68-2.14,1.68-3.98,3-5.52,1.32-1.54,2.93-2.74,4.82-3.6,1.9-.85,4.07-1.28,6.53-1.28,2.2,0,4.16.35,5.86,1.06,1.7.7,3.19,1.66,4.47,2.86l-.85,1.16c-.11.11-.22.21-.32.29-.1.08-.24.12-.43.12-.23,0-.53-.15-.92-.46-.39-.31-.91-.64-1.57-1.01-.66-.36-1.48-.7-2.47-1.01-.99-.31-2.19-.46-3.6-.46-1.95,0-3.69.35-5.2,1.04-1.51.69-2.79,1.69-3.83,2.98-1.05,1.3-1.84,2.86-2.37,4.7-.53,1.84-.8,3.91-.8,6.2s.28,4.5.83,6.34c.56,1.84,1.35,3.39,2.37,4.65s2.26,2.22,3.72,2.88c1.45.66,3.07.99,4.84.99,1.64,0,3.01-.19,4.11-.58,1.1-.39,2.01-.81,2.73-1.26.72-.45,1.28-.87,1.69-1.26.41-.39.75-.58,1.02-.58s.5.11.68.34l.85,1.09Z"/>
        <path class="cls-1" d="M501.17,175.16c1.77-1.77,3.64-3.11,5.59-4.02,1.95-.91,4.17-1.36,6.65-1.36,1.82,0,3.41.29,4.77.87,1.36.58,2.49,1.41,3.39,2.49.9,1.08,1.57,2.39,2.03,3.92.45,1.53.68,3.24.68,5.13v22.09h-1.3c-.68,0-1.1-.32-1.26-.95l-.48-4.36c-.93.91-1.86,1.73-2.78,2.45-.92.73-1.88,1.34-2.88,1.84-1,.5-2.08.89-3.24,1.16-1.16.27-2.43.41-3.82.41-1.16,0-2.28-.17-3.37-.51s-2.06-.86-2.91-1.57c-.85-.7-1.53-1.61-2.04-2.71-.51-1.1-.77-2.43-.77-3.97,0-1.43.41-2.76,1.23-3.99.82-1.23,2.1-2.29,3.85-3.2,1.75-.91,3.99-1.64,6.73-2.18,2.74-.55,6.03-.86,9.87-.95v-3.54c0-3.14-.68-5.55-2.03-7.24-1.35-1.69-3.36-2.54-6.02-2.54-1.64,0-3.03.23-4.18.68-1.15.46-2.12.95-2.91,1.5-.8.55-1.44,1.05-1.94,1.5s-.92.68-1.26.68c-.25,0-.45-.06-.61-.17-.16-.11-.3-.26-.41-.44l-.58-.99ZM521.12,187.87c-3.23.11-6.01.37-8.33.77-2.33.4-4.25.94-5.76,1.62-1.51.68-2.63,1.49-3.36,2.44-.73.94-1.09,2.02-1.09,3.22,0,1.14.19,2.12.56,2.95.38.83.87,1.51,1.5,2.05.62.53,1.35.93,2.16,1.18.82.25,1.67.38,2.56.38,1.32,0,2.53-.14,3.63-.43,1.1-.28,2.12-.68,3.07-1.19.94-.51,1.82-1.12,2.64-1.82.82-.7,1.62-1.47,2.42-2.28v-8.86ZM516.65,160.64c1,0,1.74-.31,2.23-.94.49-.62.76-1.47.8-2.54h2.01c0,.82-.11,1.58-.32,2.3-.22.72-.53,1.33-.95,1.86s-.94.93-1.55,1.23-1.32.44-2.11.44c-.75,0-1.45-.19-2.11-.56s-1.29-.78-1.91-1.23c-.61-.44-1.21-.85-1.79-1.23s-1.17-.56-1.76-.56c-.95,0-1.69.32-2.2.97-.51.65-.78,1.48-.8,2.51h-2.08c0-.82.11-1.58.34-2.3.23-.72.56-1.33.99-1.86.43-.52.95-.93,1.57-1.23.61-.3,1.31-.44,2.08-.44s1.49.19,2.15.56,1.29.78,1.89,1.23c.6.44,1.19.85,1.77,1.23.58.38,1.16.56,1.76.56Z"/>
        <path class="cls-1" d="M548.56,169.8c2.43,0,4.61.42,6.53,1.24,1.92.83,3.54,2.01,4.86,3.53,1.32,1.52,2.32,3.36,3.02,5.5.69,2.15,1.04,4.55,1.04,7.21s-.35,5.06-1.04,7.19c-.69,2.14-1.7,3.97-3.02,5.49-1.32,1.52-2.94,2.69-4.86,3.51-1.92.82-4.1,1.23-6.53,1.23s-4.61-.41-6.53-1.23c-1.92-.82-3.55-1.99-4.87-3.51-1.33-1.52-2.34-3.35-3.03-5.49-.69-2.14-1.04-4.53-1.04-7.19s.35-5.06,1.04-7.21c.69-2.15,1.7-3.98,3.03-5.5,1.33-1.52,2.95-2.7,4.87-3.53,1.92-.83,4.1-1.24,6.53-1.24ZM548.56,202.15c2.02,0,3.79-.35,5.3-1.04,1.51-.69,2.77-1.69,3.78-2.98,1.01-1.3,1.77-2.86,2.27-4.69.5-1.83.75-3.88.75-6.15s-.25-4.29-.75-6.14c-.5-1.84-1.26-3.41-2.27-4.72-1.01-1.31-2.27-2.31-3.78-3.02-1.51-.7-3.28-1.06-5.3-1.06s-3.79.35-5.3,1.06c-1.51.7-2.77,1.71-3.78,3.02-1.01,1.31-1.77,2.88-2.28,4.72-.51,1.84-.77,3.89-.77,6.14s.26,4.32.77,6.15c.51,1.83,1.27,3.39,2.28,4.69,1.01,1.3,2.27,2.29,3.78,2.98,1.51.69,3.28,1.04,5.3,1.04Z"/>
        <path class="cls-1" d="M626.48,204.27h-3c-.39,0-.71-.06-.97-.19-.26-.12-.51-.36-.73-.7l-15.48-19.57c-.18-.25-.37-.47-.56-.65-.19-.18-.41-.32-.65-.43-.24-.1-.52-.18-.85-.22-.33-.05-.73-.07-1.21-.07h-6.31v21.82h-3.51v-48.23h12.34c5.54,0,9.7,1.07,12.46,3.22,2.76,2.15,4.14,5.3,4.14,9.46,0,1.84-.32,3.52-.95,5.04-.64,1.52-1.55,2.86-2.74,4.01-1.19,1.15-2.64,2.09-4.33,2.81-1.69.73-3.6,1.22-5.71,1.47.55.34,1.03.8,1.47,1.36l16.6,20.86ZM605.07,179.86c2.14,0,4.05-.26,5.74-.77,1.69-.51,3.12-1.24,4.29-2.2,1.17-.95,2.06-2.1,2.68-3.44.61-1.34.92-2.85.92-4.53,0-3.43-1.12-5.98-3.36-7.64-2.24-1.66-5.5-2.49-9.8-2.49h-8.83v21.07h8.35Z"/>
        <path class="cls-1" d="M632.07,185.96v.65c0,2.55.29,4.78.89,6.72.59,1.93,1.43,3.55,2.52,4.86,1.09,1.31,2.41,2.29,3.95,2.95,1.54.66,3.27.99,5.18.99,1.7,0,3.18-.19,4.43-.56,1.25-.38,2.3-.8,3.15-1.26.85-.47,1.53-.89,2.03-1.26s.86-.56,1.09-.56c.3,0,.52.11.68.34l.89,1.09c-.55.68-1.27,1.32-2.16,1.91-.9.59-1.9,1.1-3,1.52-1.1.42-2.28.76-3.54,1.01-1.26.25-2.53.38-3.8.38-2.32,0-4.43-.4-6.34-1.21-1.91-.81-3.54-1.98-4.91-3.53-1.36-1.55-2.42-3.44-3.15-5.68-.74-2.24-1.11-4.8-1.11-7.69,0-2.43.35-4.68,1.04-6.73.69-2.06,1.69-3.83,3-5.32,1.31-1.49,2.91-2.65,4.81-3.49,1.9-.84,4.05-1.26,6.46-1.26,1.91,0,3.68.33,5.32.99,1.64.66,3.06,1.62,4.26,2.88,1.2,1.26,2.15,2.81,2.85,4.65.69,1.84,1.04,3.95,1.04,6.34,0,.5-.07.84-.2,1.02-.14.18-.36.27-.68.27h-24.68ZM654.7,183.88c0-1.82-.26-3.45-.77-4.89-.51-1.44-1.23-2.66-2.16-3.66-.93-1-2.04-1.77-3.32-2.3-1.28-.53-2.7-.8-4.24-.8-1.75,0-3.32.27-4.7.82-1.39.55-2.58,1.33-3.6,2.35-1.01,1.02-1.82,2.25-2.44,3.68-.61,1.43-1.02,3.03-1.23,4.81h22.46Z"/>
        <path class="cls-1" d="M685.11,174.54c-.18.32-.44.48-.78.48-.25,0-.57-.14-.95-.43-.39-.28-.9-.6-1.55-.95-.65-.35-1.45-.67-2.4-.95-.95-.28-2.11-.43-3.48-.43-1.23,0-2.35.18-3.36.53-1.01.35-1.88.82-2.59,1.41-.72.59-1.27,1.28-1.65,2.06-.39.78-.58,1.61-.58,2.47,0,1.07.27,1.95.82,2.66.55.7,1.26,1.31,2.13,1.81.87.5,1.88.93,3.02,1.3,1.14.36,2.29.73,3.46,1.09,1.17.36,2.32.77,3.46,1.21,1.14.44,2.14.99,3.02,1.65.88.66,1.59,1.47,2.13,2.42.55.95.82,2.11.82,3.48,0,1.48-.26,2.85-.78,4.12-.52,1.27-1.29,2.38-2.3,3.31-1.01.93-2.26,1.67-3.73,2.22-1.48.54-3.17.82-5.08.82-2.39,0-4.44-.38-6.17-1.14-1.73-.76-3.27-1.76-4.64-2.98l.75-1.16c.11-.18.24-.32.39-.41.15-.09.35-.14.6-.14.3,0,.65.18,1.07.55.42.36.98.76,1.69,1.18.7.42,1.57.81,2.61,1.18,1.03.36,2.31.55,3.83.55,1.43,0,2.69-.2,3.78-.6s2-.94,2.73-1.62c.73-.68,1.28-1.48,1.65-2.4s.56-1.89.56-2.91c0-1.14-.27-2.08-.82-2.83s-1.26-1.39-2.15-1.91c-.89-.52-1.89-.97-3.02-1.33-1.12-.36-2.28-.73-3.46-1.09-1.18-.36-2.33-.76-3.46-1.19-1.12-.43-2.13-.98-3.02-1.64s-1.6-1.46-2.15-2.4c-.55-.94-.82-2.12-.82-3.53,0-1.2.26-2.36.78-3.48.52-1.11,1.27-2.09,2.23-2.93.97-.84,2.14-1.51,3.53-2.01,1.39-.5,2.94-.75,4.67-.75,2.07,0,3.9.3,5.5.89,1.6.59,3.06,1.5,4.38,2.73l-.68,1.12Z"/>
        <path class="cls-1" d="M700.45,158.66c0,.41-.08.79-.26,1.14-.17.35-.39.66-.67.94s-.59.49-.95.65c-.36.16-.75.24-1.16.24s-.8-.08-1.16-.24c-.36-.16-.68-.38-.95-.65s-.49-.58-.65-.94c-.16-.35-.24-.73-.24-1.14s.08-.8.24-1.18c.16-.38.38-.7.65-.97s.59-.49.95-.65c.36-.16.75-.24,1.16-.24s.8.08,1.16.24c.36.16.68.38.95.65s.49.6.67.97c.17.38.26.77.26,1.18ZM699.05,170.35v33.92h-3.24v-33.92h3.24Z"/>
        <path class="cls-1" d="M736.99,154.67v49.6h-1.77c-.59,0-.93-.29-1.02-.89l-.34-5.35c-1.5,2.04-3.25,3.67-5.25,4.87-2,1.2-4.25,1.81-6.75,1.81-4.18,0-7.43-1.44-9.75-4.33-2.32-2.89-3.48-7.21-3.48-12.99,0-2.48.32-4.79.97-6.94.65-2.15,1.6-4.01,2.85-5.59,1.25-1.58,2.79-2.82,4.62-3.73,1.83-.91,3.94-1.36,6.32-1.36s4.28.42,5.97,1.26c1.68.84,3.15,2.09,4.4,3.75v-20.11h3.24ZM733.75,177.65c-1.29-1.95-2.73-3.33-4.31-4.12s-3.38-1.19-5.4-1.19-3.75.36-5.25,1.09c-1.5.73-2.76,1.76-3.77,3.08-1.01,1.33-1.77,2.92-2.28,4.77s-.77,3.89-.77,6.12c0,5.04.93,8.75,2.78,11.13,1.85,2.38,4.53,3.56,8.03,3.56,2.23,0,4.26-.58,6.1-1.74,1.84-1.16,3.47-2.78,4.87-4.87v-17.83Z"/>
        <path class="cls-1" d="M749.33,185.96v.65c0,2.55.29,4.78.89,6.72.59,1.93,1.43,3.55,2.52,4.86,1.09,1.31,2.41,2.29,3.95,2.95,1.54.66,3.27.99,5.18.99,1.7,0,3.18-.19,4.43-.56,1.25-.38,2.3-.8,3.15-1.26.85-.47,1.53-.89,2.03-1.26s.86-.56,1.09-.56c.3,0,.52.11.68.34l.89,1.09c-.55.68-1.27,1.32-2.16,1.91-.9.59-1.9,1.1-3,1.52-1.1.42-2.28.76-3.54,1.01-1.26.25-2.53.38-3.8.38-2.32,0-4.43-.4-6.34-1.21-1.91-.81-3.54-1.98-4.91-3.53-1.36-1.55-2.42-3.44-3.15-5.68-.74-2.24-1.11-4.8-1.11-7.69,0-2.43.35-4.68,1.04-6.73.69-2.06,1.69-3.83,3-5.32,1.31-1.49,2.91-2.65,4.81-3.49,1.9-.84,4.05-1.26,6.46-1.26,1.91,0,3.68.33,5.32.99,1.64.66,3.06,1.62,4.26,2.88,1.2,1.26,2.15,2.81,2.85,4.65.69,1.84,1.04,3.95,1.04,6.34,0,.5-.07.84-.2,1.02-.14.18-.36.27-.68.27h-24.68ZM771.96,183.88c0-1.82-.26-3.45-.77-4.89-.51-1.44-1.23-2.66-2.16-3.66-.93-1-2.04-1.77-3.32-2.3-1.28-.53-2.7-.8-4.24-.8-1.75,0-3.32.27-4.7.82-1.39.55-2.58,1.33-3.6,2.35-1.01,1.02-1.82,2.25-2.44,3.68-.61,1.43-1.02,3.03-1.23,4.81h22.46Z"/>
        <path class="cls-1" d="M786.82,176.28c1.57-1.95,3.38-3.52,5.44-4.7,2.06-1.18,4.35-1.77,6.87-1.77,1.86,0,3.51.3,4.93.89,1.42.59,2.6,1.44,3.53,2.56.93,1.11,1.64,2.45,2.11,4.02.48,1.57.72,3.34.72,5.32v21.68h-3.27v-21.68c0-3.18-.73-5.68-2.18-7.48-1.45-1.81-3.67-2.71-6.65-2.71-2.2,0-4.27.56-6.19,1.69-1.92,1.12-3.63,2.69-5.13,4.69v25.5h-3.27v-33.92h1.81c.57,0,.9.28.99.85l.31,5.08Z"/>
        <path class="cls-1" d="M844.02,174.88c-.11.11-.22.21-.32.29-.1.08-.24.12-.43.12-.23,0-.53-.15-.92-.46-.39-.31-.91-.64-1.57-1.01-.66-.36-1.48-.7-2.47-1.01-.99-.31-2.19-.46-3.6-.46-1.95,0-3.69.35-5.2,1.04-1.51.69-2.79,1.69-3.83,2.98-1.05,1.3-1.84,2.86-2.37,4.7-.53,1.84-.8,3.91-.8,6.2s.28,4.5.83,6.34c.56,1.84,1.35,3.39,2.37,4.65s2.26,2.22,3.72,2.88c1.45.66,3.07.99,4.84.99,1.64,0,3.01-.19,4.11-.58,1.1-.39,2.01-.81,2.73-1.26.72-.45,1.28-.87,1.69-1.26.41-.39.75-.58,1.02-.58s.5.11.68.34l.85,1.09c-.52.68-1.18,1.32-1.98,1.91-.8.59-1.69,1.1-2.69,1.53-1,.43-2.09.77-3.26,1.01-1.17.24-2.39.36-3.66.36-2.16,0-4.13-.39-5.91-1.18-1.78-.78-3.32-1.92-4.6-3.41-1.28-1.49-2.28-3.31-3-5.47-.72-2.16-1.07-4.61-1.07-7.36,0-2.59.34-4.95,1.02-7.09.68-2.14,1.68-3.98,3-5.52,1.32-1.54,2.93-2.74,4.82-3.6,1.9-.85,4.07-1.28,6.53-1.28,2.2,0,4.16.35,5.86,1.06,1.7.7,3.19,1.66,4.47,2.86l-.85,1.16Z"/>
        <path class="cls-1" d="M858.37,158.66c0,.41-.08.79-.26,1.14-.17.35-.39.66-.67.94s-.59.49-.95.65c-.36.16-.75.24-1.16.24s-.8-.08-1.16-.24c-.36-.16-.68-.38-.95-.65s-.49-.58-.65-.94c-.16-.35-.24-.73-.24-1.14s.08-.8.24-1.18c.16-.38.38-.7.65-.97s.59-.49.95-.65c.36-.16.75-.24,1.16-.24s.8.08,1.16.24c.36.16.68.38.95.65s.49.6.67.97c.17.38.26.77.26,1.18ZM856.97,170.35v33.92h-3.24v-33.92h3.24Z"/>
        <path class="cls-1" d="M867.57,175.16c1.77-1.77,3.64-3.11,5.59-4.02,1.95-.91,4.17-1.36,6.65-1.36,1.82,0,3.41.29,4.77.87,1.36.58,2.49,1.41,3.39,2.49.9,1.08,1.57,2.39,2.03,3.92.45,1.53.68,3.24.68,5.13v22.09h-1.3c-.68,0-1.1-.32-1.26-.95l-.48-4.36c-.93.91-1.86,1.73-2.78,2.45-.92.73-1.88,1.34-2.88,1.84-1,.5-2.08.89-3.24,1.16-1.16.27-2.43.41-3.82.41-1.16,0-2.28-.17-3.37-.51s-2.06-.86-2.91-1.57c-.85-.7-1.53-1.61-2.04-2.71-.51-1.1-.77-2.43-.77-3.97,0-1.43.41-2.76,1.23-3.99.82-1.23,2.1-2.29,3.85-3.2,1.75-.91,3.99-1.64,6.73-2.18,2.74-.55,6.03-.86,9.87-.95v-3.54c0-3.14-.68-5.55-2.03-7.24-1.35-1.69-3.36-2.54-6.02-2.54-1.64,0-3.03.23-4.18.68-1.15.46-2.12.95-2.91,1.5-.8.55-1.44,1.05-1.94,1.5s-.92.68-1.26.68c-.25,0-.45-.06-.61-.17-.16-.11-.3-.26-.41-.44l-.58-.99ZM887.52,187.87c-3.23.11-6.01.37-8.33.77-2.33.4-4.25.94-5.76,1.62-1.51.68-2.63,1.49-3.36,2.44-.73.94-1.09,2.02-1.09,3.22,0,1.14.19,2.12.56,2.95.38.83.87,1.51,1.5,2.05.62.53,1.35.93,2.16,1.18.82.25,1.67.38,2.56.38,1.32,0,2.53-.14,3.63-.43,1.1-.28,2.12-.68,3.07-1.19.94-.51,1.82-1.12,2.64-1.82.82-.7,1.62-1.47,2.42-2.28v-8.86Z"/>
        <path class="cls-1" d="M905.1,154.67v49.6h-3.27v-49.6h3.27Z"/>
      </g>
    </g>
  </g>
</svg>