<?xml version="1.0" encoding="UTF-8"?>
<svg id="LOGOTIPO_VERT_T" xmlns="http://www.w3.org/2000/svg" viewBox="0 0 710 360">
  <defs>
    <style>
      .cls-1 {
        fill: #2dd4bf;
        stroke-width: 0px;
      }
    </style>
  </defs>
  <g id="LOGOTIPO_LUMOUS">
    <g id="LOGOTIPO">
      <path class="cls-1" d="M403.62,222.79c-14.5,0-26.25,13.1-26.25,29.27s11.75,29.27,26.25,29.27,26.25-13.1,26.25-29.27-11.75-29.27-26.25-29.27ZM416.62,256.26c-1.3,4.32-5.69,13.2-13.08,13.23-8.16.03-15.27-10.73-12.74-15.88.96-1.94,3.56-3.6,6.2-3.42,2.96.19,5.7,2.67,6.54,6.23,3.6-3.96,2.92-9.23,0-11.36-3.22-2.36-9.94-1.48-13.08,3.58,1.44-6.29,3.93-8.43,6.03-9.18,2.23-.8,4.81-.31,5.16-1.25.32-.85-1.48-2.19-2.99-3.16,1.63-.25,7.99-1.04,13.15,2.53,8.44,5.85,5.17,17.52,4.82,18.68Z"/>
      <path class="cls-1" d="M233.91,282.77c-3.64-.08-8.92-.19-11.55-3.65-3.3-4.34,1.02-9.4,2.43-24.32.6-6.35.99-10.95-.61-16.42-2.08-7.12-6.46-12.02-9.57-14.86,3.39-.85,8.78-1.69,15.04-.34,3.4.73,5.57,1.9,7.9,4.26,3.39,3.43,4.26,7.9,4.26,9.73,0,3.65-.34,4.81-1.22,10.94-.61,4.26-.42,7.35,0,10.34.5,3.56,1.03,7.04,3.42,8.1,1.28.57,2.21.32,3.27-.2,4.76-2.3,4.68-12.51,4.26-18.85-.38-5.7-2.19-14.2-6.1-24.32h26.42c-2.12,7.42-4.27,18.03-4.07,30.83.18,11.2,2.1,19.94,4.07,26.82-6.78.03-13.55.06-20.33.1v-4.56c-2.19,1.8-8.64,6.59-17.63,6.39Z"/>
      <path class="cls-1" d="M451.22,282.99c-3.64-.08-8.92-.19-11.55-3.65-3.3-4.34,1.02-9.4,2.43-24.32.6-6.35.99-10.95-.61-16.42-2.08-7.12-6.46-12.02-9.57-14.86,3.39-.85,8.78-1.69,15.04-.34,3.4.73,5.57,1.9,7.9,4.26,3.39,3.43,4.26,7.9,4.26,9.73,0,3.65-.34,4.81-1.22,10.94-.61,4.26-.42,7.35,0,10.34.5,3.56,1.03,7.04,3.42,8.1,1.28.57,2.21.32,3.27-.2,4.76-2.3,4.68-12.51,4.26-18.85-.38-5.7-2.19-14.2-6.1-24.32h26.42c-2.12,7.42-4.27,18.03-4.07,30.83.18,11.2,2.1,19.94,4.07,26.82-6.78.03-13.55.06-20.33.1v-4.56c-2.19,1.8-8.64,6.59-17.63,6.39Z"/>
      <path class="cls-1" d="M361.75,229.64c7.53,7.81,4.65,22.57,6.23,38.61.27,2.75.61,4.94.77,5.89.47,2.8.98,4.8,1.37,6.77h-18.97v-28.82c0-8.58-3.19-13.46-8.19-13.46-5.49,0-9.48,5.32-9.48,14.56v27.72h-15.23v-28.82c0-8.58-3.09-13.46-8.19-13.46-5.59,0-9.58,5.32-9.58,14.56v27.72h-18.97c1.01-4.86,1.85-8.27,2.39-13.91,1.64-17.11.01-32.08-2.39-43.84h18.07v6.27c.93-.72,9.6-7.28,19.82-4.15,5.32,1.63,8.57,5.13,9.96,6.85,1.69-1.88,5.18-5.22,10.59-6.85,6.97-2.11,16.46-1.18,21.79,4.36Z"/>
      <path class="cls-1" d="M496.69,276.7l6.18-14.1c5.42,3.36,13.34,5.42,20.49,5.42s9.22-1.52,9.22-4.01c0-7.92-34.7,1.08-34.7-22.44,0-11.06,10.19-19.52,28.62-19.52,8.24,0,17.35,1.73,23.2,4.99l-6.18,13.99c-5.86-3.25-11.71-4.34-16.91-4.34-6.94,0-9.43,1.95-9.43,4.12,0,8.13,34.59-.65,34.59,22.66,0,10.84-9.97,19.3-29.06,19.3-9.98,0-20.28-2.49-26.02-6.07Z"/>
      <path class="cls-1" d="M161.88,214.69h20.74c-.79,7.13-1.77,16.68-2.68,28.02-1.4,17.43-1.16,20.71,1.25,23.04,7.36,7.12,20.75-5,28.64,2.49,3.43,3.26,3.58,8.77,3.11,13.08h-51.68c1.57-8.36,2.82-18.21,3.11-29.27.36-13.68-.84-27.55-2.49-37.36Z"/>
    </g>
    <g id="SIMBOLO">
      <g id="FIRE_SIMBOLO">
        <path id="FIRE_2" class="cls-1" d="M343.83,55.23c-1.82-24.47,8.32-42.91,12.75-50,4.29,38.77,18.27,59.59,30.73,71.52,15.95,15.27,28.83,15.43,39.21,33.69,8.27,14.56,12.57,36.45,3.68,57.28-8.3,19.45-24.15,28.73-29.47,31.56,9.92-37.76,3.22-57.67-5.14-68.93-10.5-14.14-23.3-14.19-37.06-34.31-12.77-18.66-14.41-37.11-14.68-40.81Z"/>
        <path id="FIRE_1" class="cls-1" d="M324.51,176.29c-3.58-2.6-12.71-9.86-18.68-22.67-1.9-4.08-4.8-11.55-5.51-23.89-1.76-30.61,12.34-50.17,8.58-52.38-3.47-2.04-17.26,12.05-25.42,28.18-3.02,5.98-8.37,16.81-8.58,31.86-.32,23.96,12.45,40.38,15.93,44.72,3.94,4.91,8.12,8.91,12.43,12.19,6.11,4.66,17.4,10.93,31.37,14.15,23.92,5.51,45.15.86,54.22-3.68,0,0-2.25-9.2-4-16.57-.54-2.28-3.58-3.97-6.01-3.25-19.4,5.73-35.32.52-37.16-.09-7.17-2.39-12.38-5.11-17.15-8.58Z"/>
      </g>
      <g id="HOME_SIMBOLO">
        <polygon id="TELHADO" class="cls-1" points="351.06 124.96 388.53 146.59 388.53 141.74 371.73 132.04 371.73 121.06 367.53 121.06 367.53 129.62 351.06 120.11 313.47 141.81 313.47 141.81 313.47 146.62 313.51 146.64 351.06 124.96"/>
        <rect id="PORTA" class="cls-1" x="329.59" y="143.56" width="13.5" height="23.08"/>
        <g id="JANELAS">
          <rect id="JANELA_4" class="cls-1" x="363.83" y="143.55" width="8.4" height="8.32"/>
          <rect id="JANELA_3" class="cls-1" x="353.02" y="143.55" width="8.4" height="8.32"/>
          <rect id="JANELA_2" class="cls-1" x="363.83" y="154.37" width="8.4" height="8.32"/>
          <rect id="JANELA_1" class="cls-1" x="353.02" y="154.37" width="8.4" height="8.32"/>
        </g>
      </g>
    </g>
    <g>
      <path class="cls-1" d="M51.55,342.14h-2.8c-.33,0-.6-.09-.81-.27-.21-.18-.38-.41-.5-.69l-5.88-14.55h-24.6l-5.88,14.55c-.09.26-.26.48-.5.67-.24.19-.52.28-.85.28h-2.76l20.5-50.09h3.58l20.5,50.09ZM40.47,323.94l-10.2-25.31c-.35-.83-.7-1.82-1.03-2.97-.14.57-.29,1.1-.46,1.61-.17.51-.34.97-.53,1.4l-10.2,25.28h22.41Z"/>
      <path class="cls-1" d="M84.65,306.92v35.22h-1.88c-.59,0-.93-.31-1.03-.92l-.32-5.24c-1.63,2.03-3.51,3.66-5.65,4.88-2.14,1.23-4.51,1.84-7.13,1.84-1.96,0-3.67-.31-5.13-.92-1.46-.61-2.68-1.5-3.65-2.66s-1.7-2.55-2.19-4.18c-.5-1.63-.74-3.47-.74-5.52v-22.51h3.4v22.51c0,3.3.76,5.89,2.27,7.77,1.51,1.88,3.81,2.81,6.9,2.81,2.29,0,4.43-.58,6.42-1.75,1.99-1.17,3.77-2.79,5.33-4.87v-26.48h3.4Z"/>
      <path class="cls-1" d="M105.86,342.71c-2.38,0-4.24-.66-5.58-1.98-1.33-1.32-2-3.36-2-6.12v-24.07h-5.06c-.26,0-.47-.07-.64-.21s-.25-.34-.25-.6v-1.31l6.02-.42.85-12.6c.05-.21.14-.4.28-.57s.34-.25.6-.25h1.59v13.45h11.12v2.51h-11.12v23.9c0,.97.12,1.8.37,2.5.25.7.59,1.27,1.03,1.72.44.45.95.78,1.54.99.59.21,1.23.32,1.91.32.85,0,1.58-.12,2.2-.37.61-.25,1.14-.52,1.59-.81.45-.29.81-.57,1.1-.81.28-.25.51-.37.67-.37.19,0,.38.12.57.35l.92,1.49c-.9.99-2.04,1.79-3.42,2.39-1.38.6-2.81.9-4.3.9Z"/>
      <path class="cls-1" d="M134.32,306.35c2.52,0,4.78.43,6.78,1.29s3.68,2.08,5.04,3.66c1.37,1.58,2.41,3.49,3.13,5.72s1.08,4.73,1.08,7.49-.36,5.25-1.08,7.47c-.72,2.22-1.76,4.12-3.13,5.7-1.37,1.58-3.05,2.8-5.04,3.65s-4.25,1.27-6.78,1.27-4.79-.42-6.78-1.27c-2-.85-3.68-2.06-5.06-3.65s-2.43-3.48-3.15-5.7c-.72-2.22-1.08-4.71-1.08-7.47s.36-5.26,1.08-7.49c.72-2.23,1.77-4.14,3.15-5.72,1.38-1.58,3.07-2.8,5.06-3.66,1.99-.86,4.25-1.29,6.78-1.29ZM134.32,339.94c2.1,0,3.93-.36,5.5-1.08s2.88-1.75,3.93-3.1c1.05-1.34,1.83-2.97,2.35-4.87.52-1.9.78-4.03.78-6.39s-.26-4.46-.78-6.37c-.52-1.91-1.3-3.55-2.35-4.9-1.05-1.36-2.36-2.4-3.93-3.13s-3.4-1.1-5.5-1.1-3.94.37-5.5,1.1c-1.57.73-2.88,1.78-3.93,3.13-1.05,1.36-1.84,2.99-2.37,4.9-.53,1.91-.8,4.04-.8,6.37s.27,4.49.8,6.39c.53,1.9,1.32,3.52,2.37,4.87,1.05,1.35,2.36,2.38,3.93,3.1,1.57.72,3.4,1.08,5.5,1.08Z"/>
      <path class="cls-1" d="M159.88,342.14v-35.22h1.88c.59,0,.93.3,1.03.89l.32,5.1c1.37-1.96,2.94-3.54,4.71-4.74,1.77-1.2,3.76-1.81,5.98-1.81,2.57,0,4.63.74,6.18,2.23,1.54,1.49,2.59,3.55,3.13,6.2.42-1.44,1.02-2.69,1.79-3.75.77-1.06,1.65-1.94,2.64-2.64s2.07-1.21,3.24-1.54c1.17-.33,2.37-.5,3.59-.5,1.75,0,3.32.29,4.71.87,1.39.58,2.57,1.43,3.54,2.57.97,1.13,1.71,2.53,2.23,4.18.52,1.65.78,3.54.78,5.66v22.51h-3.36v-22.51c0-3.45-.74-6.07-2.23-7.88-1.49-1.81-3.61-2.71-6.37-2.71-1.23,0-2.4.22-3.52.67-1.12.45-2.11,1.12-2.97,2-.86.89-1.55,1.99-2.05,3.31s-.76,2.86-.76,4.6v22.51h-3.4v-22.51c0-3.42-.68-6.04-2.04-7.86-1.36-1.82-3.34-2.73-5.96-2.73-1.91,0-3.68.57-5.31,1.7-1.63,1.13-3.08,2.7-4.35,4.71v26.69h-3.4Z"/>
      <path class="cls-1" d="M215.88,311.91c1.84-1.84,3.78-3.23,5.81-4.18,2.03-.94,4.33-1.42,6.9-1.42,1.89,0,3.54.3,4.96.9,1.42.6,2.59,1.46,3.52,2.58s1.63,2.48,2.11,4.07c.47,1.59.71,3.37.71,5.33v22.94h-1.34c-.71,0-1.15-.33-1.31-.99l-.5-4.53c-.97.94-1.93,1.79-2.89,2.55-.96.76-1.95,1.39-2.99,1.91-1.04.52-2.16.92-3.36,1.2-1.2.28-2.53.42-3.96.42-1.2,0-2.37-.18-3.5-.53-1.13-.35-2.14-.9-3.03-1.63-.89-.73-1.59-1.67-2.12-2.81-.53-1.14-.8-2.52-.8-4.12,0-1.49.42-2.87,1.27-4.14s2.18-2.38,4-3.33c1.82-.94,4.15-1.7,6.99-2.27,2.84-.57,6.26-.9,10.25-.99v-3.68c0-3.26-.7-5.76-2.11-7.52-1.4-1.76-3.49-2.64-6.25-2.64-1.7,0-3.15.24-4.34.71-1.19.47-2.2.99-3.03,1.56s-1.5,1.09-2.02,1.56c-.52.47-.96.71-1.31.71-.26,0-.47-.06-.64-.18-.17-.12-.31-.27-.42-.46l-.6-1.03ZM236.59,325.11c-3.35.12-6.24.38-8.66.8-2.42.41-4.41.97-5.98,1.68-1.57.71-2.73,1.55-3.49,2.53-.76.98-1.13,2.09-1.13,3.35,0,1.18.19,2.2.58,3.06.39.86.91,1.57,1.56,2.12.65.55,1.4.96,2.25,1.22s1.73.39,2.66.39c1.37,0,2.62-.15,3.77-.44s2.21-.71,3.19-1.24c.98-.53,1.89-1.16,2.74-1.89s1.69-1.52,2.51-2.37v-9.2Z"/>
      <path class="cls-1" d="M276.2,337.61c-1.02,1.32-2.46,2.43-4.32,3.33-1.86.9-3.98,1.44-6.34,1.63l-.92,2.9c2.15.35,3.77.89,4.87,1.61,1.1.72,1.65,1.78,1.65,3.17,0,.71-.16,1.35-.48,1.91-.32.57-.77,1.04-1.34,1.43s-1.27.68-2.07.88c-.8.2-1.68.3-2.62.3s-1.91-.14-2.83-.41c-.92-.27-1.69-.63-2.3-1.08l.35-.99c.14-.26.33-.39.57-.39.12,0,.28.06.48.19.2.13.46.27.78.41s.71.28,1.19.41c.47.13,1.05.19,1.74.19,1.23,0,2.17-.26,2.83-.78.66-.52.99-1.22.99-2.09,0-.59-.15-1.09-.46-1.49-.31-.4-.74-.73-1.29-.97s-1.22-.45-1.98-.6c-.77-.15-1.61-.29-2.53-.41l1.35-4.18c-2.15-.09-4.11-.57-5.88-1.42-1.77-.85-3.29-2.05-4.57-3.59s-2.27-3.42-2.97-5.61c-.71-2.19-1.06-4.68-1.06-7.47s.35-5.14,1.06-7.36,1.75-4.13,3.12-5.74c1.37-1.6,3.04-2.85,5.01-3.73,1.97-.88,4.23-1.33,6.78-1.33,2.29,0,4.32.37,6.09,1.1,1.77.73,3.32,1.72,4.64,2.97l-.88,1.2c-.12.12-.23.22-.34.3-.11.08-.25.12-.44.12-.24,0-.55-.16-.96-.48-.4-.32-.94-.67-1.63-1.04-.68-.38-1.54-.73-2.57-1.04-1.03-.32-2.27-.48-3.73-.48-2.03,0-3.83.36-5.4,1.08-1.57.72-2.9,1.75-3.98,3.1-1.08,1.34-1.91,2.97-2.46,4.88-.55,1.91-.83,4.06-.83,6.44s.29,4.67.87,6.58c.58,1.91,1.4,3.52,2.46,4.83,1.06,1.31,2.35,2.31,3.86,2.99,1.51.68,3.19,1.03,5.03,1.03,1.7,0,3.12-.2,4.27-.6,1.14-.4,2.09-.84,2.83-1.31.74-.47,1.33-.91,1.75-1.31s.78-.6,1.06-.6.52.12.71.35l.89,1.13Z"/>
      <path class="cls-1" d="M283.53,311.91c1.84-1.84,3.78-3.23,5.81-4.18,2.03-.94,4.33-1.42,6.9-1.42,1.89,0,3.54.3,4.96.9,1.42.6,2.59,1.46,3.52,2.58.93,1.12,1.63,2.48,2.11,4.07.47,1.59.71,3.37.71,5.33v22.94h-1.34c-.71,0-1.15-.33-1.31-.99l-.5-4.53c-.97.94-1.93,1.79-2.88,2.55-.96.76-1.95,1.39-2.99,1.91-1.04.52-2.16.92-3.36,1.2-1.2.28-2.53.42-3.96.42-1.2,0-2.37-.18-3.5-.53-1.13-.35-2.14-.9-3.03-1.63s-1.59-1.67-2.12-2.81-.8-2.52-.8-4.12c0-1.49.42-2.87,1.27-4.14s2.18-2.38,4-3.33c1.82-.94,4.15-1.7,6.99-2.27,2.84-.57,6.26-.9,10.25-.99v-3.68c0-3.26-.7-5.76-2.11-7.52-1.4-1.76-3.49-2.64-6.25-2.64-1.7,0-3.14.24-4.34.71-1.19.47-2.2.99-3.03,1.56s-1.5,1.09-2.02,1.56c-.52.47-.96.71-1.31.71-.26,0-.47-.06-.64-.18-.17-.12-.31-.27-.42-.46l-.6-1.03ZM304.24,325.11c-3.35.12-6.24.38-8.66.8-2.42.41-4.41.97-5.98,1.68s-2.73,1.55-3.49,2.53c-.75.98-1.13,2.09-1.13,3.35,0,1.18.2,2.2.58,3.06.39.86.91,1.57,1.56,2.12.65.55,1.4.96,2.25,1.22s1.74.39,2.66.39c1.37,0,2.62-.15,3.77-.44,1.14-.29,2.21-.71,3.19-1.24.98-.53,1.89-1.16,2.74-1.89s1.69-1.52,2.51-2.37v-9.2ZM299.6,296.83c1.04,0,1.81-.32,2.32-.97.51-.65.78-1.53.83-2.64h2.09c0,.85-.11,1.65-.34,2.39-.22.74-.55,1.39-.99,1.93-.44.54-.97.97-1.61,1.27-.64.31-1.37.46-2.2.46-.78,0-1.51-.2-2.2-.58-.69-.39-1.35-.81-1.98-1.27-.64-.46-1.26-.88-1.86-1.27-.6-.39-1.21-.58-1.82-.58-.99,0-1.75.34-2.28,1.01-.53.67-.81,1.54-.83,2.6h-2.16c0-.85.12-1.65.35-2.39.24-.74.58-1.39,1.03-1.93.45-.54.99-.97,1.63-1.27.64-.31,1.36-.46,2.16-.46s1.55.19,2.23.58,1.34.81,1.97,1.27c.62.46,1.24.88,1.84,1.27s1.21.58,1.82.58Z"/>
      <path class="cls-1" d="M332.73,306.35c2.53,0,4.79.43,6.78,1.29s3.68,2.08,5.04,3.66c1.37,1.58,2.41,3.49,3.13,5.72.72,2.23,1.08,4.73,1.08,7.49s-.36,5.25-1.08,7.47c-.72,2.22-1.76,4.12-3.13,5.7-1.37,1.58-3.05,2.8-5.04,3.65s-4.25,1.27-6.78,1.27-4.79-.42-6.78-1.27c-2-.85-3.68-2.06-5.06-3.65s-2.43-3.48-3.15-5.7c-.72-2.22-1.08-4.71-1.08-7.47s.36-5.26,1.08-7.49c.72-2.23,1.77-4.14,3.15-5.72,1.38-1.58,3.07-2.8,5.06-3.66,1.99-.86,4.25-1.29,6.78-1.29ZM332.73,339.94c2.1,0,3.94-.36,5.5-1.08s2.88-1.75,3.93-3.1c1.05-1.34,1.83-2.97,2.35-4.87.52-1.9.78-4.03.78-6.39s-.26-4.46-.78-6.37c-.52-1.91-1.3-3.55-2.35-4.9-1.05-1.36-2.36-2.4-3.93-3.13s-3.4-1.1-5.5-1.1-3.94.37-5.5,1.1c-1.57.73-2.88,1.78-3.93,3.13-1.05,1.36-1.84,2.99-2.37,4.9-.53,1.91-.8,4.04-.8,6.37s.27,4.49.8,6.39,1.32,3.52,2.37,4.87c1.05,1.35,2.36,2.38,3.93,3.1,1.57.72,3.4,1.08,5.5,1.08Z"/>
      <path class="cls-1" d="M413.66,342.14h-3.12c-.4,0-.74-.06-1.01-.19-.27-.13-.53-.37-.76-.73l-16.07-20.32c-.19-.26-.38-.48-.58-.67-.2-.19-.42-.34-.67-.44-.25-.11-.54-.18-.88-.23-.34-.05-.76-.07-1.26-.07h-6.55v22.66h-3.65v-50.09h12.82c5.76,0,10.07,1.11,12.94,3.34s4.3,5.5,4.3,9.82c0,1.91-.33,3.66-.99,5.24-.66,1.58-1.61,2.97-2.85,4.16s-2.74,2.17-4.5,2.92c-1.76.76-3.73,1.26-5.93,1.52.57.35,1.07.83,1.52,1.42l17.24,21.67ZM391.43,316.79c2.22,0,4.21-.27,5.96-.8,1.76-.53,3.25-1.29,4.46-2.28,1.21-.99,2.14-2.18,2.78-3.58.64-1.39.96-2.96.96-4.71,0-3.56-1.16-6.21-3.49-7.93s-5.72-2.58-10.18-2.58h-9.17v21.88h8.67Z"/>
      <path class="cls-1" d="M419.47,323.13v.67c0,2.64.31,4.97.92,6.97.61,2.01,1.49,3.69,2.62,5.04,1.13,1.36,2.5,2.38,4.11,3.06,1.61.68,3.4,1.03,5.38,1.03,1.77,0,3.3-.19,4.6-.58,1.3-.39,2.39-.83,3.27-1.31.88-.48,1.59-.92,2.11-1.31.52-.39.9-.58,1.13-.58.31,0,.54.12.71.35l.92,1.13c-.57.71-1.32,1.37-2.25,1.98-.93.61-1.97,1.14-3.12,1.58-1.14.44-2.37.79-3.68,1.04-1.31.26-2.62.39-3.95.39-2.41,0-4.6-.42-6.58-1.26-1.98-.84-3.68-2.06-5.1-3.66-1.42-1.61-2.51-3.57-3.27-5.89-.77-2.32-1.15-4.99-1.15-7.98,0-2.53.36-4.86,1.08-6.99.72-2.14,1.76-3.98,3.12-5.52,1.36-1.54,3.02-2.75,4.99-3.63,1.97-.87,4.21-1.31,6.71-1.31,1.98,0,3.82.34,5.52,1.03s3.17,1.68,4.42,2.99,2.24,2.92,2.96,4.83c.72,1.91,1.08,4.11,1.08,6.58,0,.52-.07.87-.21,1.06-.14.19-.38.28-.71.28h-25.63ZM442.97,320.97c0-1.89-.27-3.58-.8-5.08-.53-1.5-1.28-2.77-2.25-3.81-.97-1.04-2.12-1.83-3.45-2.39-1.33-.55-2.8-.83-4.41-.83-1.82,0-3.45.28-4.88.85s-2.68,1.38-3.73,2.44c-1.05,1.06-1.89,2.34-2.53,3.82-.64,1.49-1.06,3.15-1.27,4.99h23.33Z"/>
      <path class="cls-1" d="M474.55,311.27c-.19.33-.46.5-.81.5-.26,0-.59-.15-.99-.44-.4-.29-.94-.62-1.61-.99-.67-.37-1.5-.7-2.5-.99s-2.2-.44-3.61-.44c-1.27,0-2.44.18-3.49.55-1.05.37-1.95.86-2.69,1.47s-1.32,1.33-1.72,2.14c-.4.81-.6,1.67-.6,2.57,0,1.11.28,2.03.85,2.76.57.73,1.3,1.36,2.21,1.88.91.52,1.95.97,3.13,1.34,1.18.38,2.38.76,3.59,1.13,1.21.38,2.41.8,3.59,1.26,1.18.46,2.22,1.03,3.13,1.72.91.68,1.65,1.52,2.21,2.51s.85,2.19.85,3.61c0,1.54-.27,2.96-.81,4.28-.54,1.32-1.34,2.47-2.39,3.43-1.05.97-2.34,1.73-3.88,2.3-1.54.57-3.29.85-5.28.85-2.48,0-4.61-.4-6.41-1.19-1.79-.79-3.4-1.82-4.81-3.1l.78-1.2c.12-.19.25-.33.41-.42.15-.09.36-.14.62-.14.31,0,.68.19,1.12.57.44.38,1.02.79,1.75,1.22s1.63.84,2.71,1.22c1.07.38,2.4.57,3.98.57,1.49,0,2.8-.21,3.93-.62,1.13-.41,2.08-.97,2.83-1.68.75-.71,1.33-1.54,1.72-2.5.39-.96.58-1.96.58-3.03,0-1.18-.28-2.16-.85-2.94-.57-.78-1.31-1.44-2.23-1.98-.92-.54-1.96-1-3.13-1.38-1.17-.38-2.37-.75-3.59-1.13-1.23-.38-2.42-.79-3.59-1.24s-2.21-1.01-3.13-1.7c-.92-.68-1.66-1.52-2.23-2.5s-.85-2.2-.85-3.66c0-1.25.27-2.45.81-3.61.54-1.16,1.32-2.17,2.32-3.04s2.22-1.57,3.66-2.09c1.44-.52,3.06-.78,4.85-.78,2.15,0,4.05.31,5.72.92,1.66.61,3.18,1.56,4.55,2.83l-.71,1.17Z"/>
      <path class="cls-1" d="M490.48,294.77c0,.42-.09.82-.27,1.19-.18.37-.41.69-.69.97s-.61.51-.99.67c-.38.17-.78.25-1.2.25s-.83-.08-1.2-.25c-.38-.17-.71-.39-.99-.67s-.51-.61-.67-.97c-.17-.37-.25-.76-.25-1.19s.08-.83.25-1.22.39-.73.67-1.01.61-.51.99-.67c.38-.16.78-.25,1.2-.25s.83.08,1.2.25c.38.17.71.39.99.67s.51.62.69,1.01.27.8.27,1.22ZM489.02,306.92v35.22h-3.36v-35.22h3.36Z"/>
      <path class="cls-1" d="M528.43,290.63v51.51h-1.84c-.61,0-.97-.31-1.06-.92l-.35-5.56c-1.56,2.12-3.38,3.81-5.45,5.06-2.08,1.25-4.41,1.88-7.01,1.88-4.34,0-7.72-1.5-10.12-4.5s-3.61-7.49-3.61-13.49c0-2.57.34-4.97,1.01-7.2.67-2.23,1.66-4.17,2.96-5.81s2.9-2.93,4.8-3.88c1.9-.94,4.09-1.42,6.57-1.42s4.45.44,6.19,1.31c1.75.87,3.27,2.17,4.57,3.89v-20.89h3.36ZM525.06,314.49c-1.35-2.03-2.84-3.46-4.48-4.28-1.64-.83-3.51-1.24-5.61-1.24s-3.89.38-5.45,1.13c-1.56.76-2.86,1.82-3.91,3.2-1.05,1.38-1.84,3.03-2.37,4.96-.53,1.92-.8,4.04-.8,6.35,0,5.24.96,9.09,2.88,11.56,1.92,2.47,4.7,3.7,8.34,3.7,2.31,0,4.42-.6,6.34-1.81,1.91-1.2,3.6-2.89,5.06-5.06v-18.51Z"/>
      <path class="cls-1" d="M541.24,323.13v.67c0,2.64.31,4.97.92,6.97.61,2.01,1.49,3.69,2.62,5.04,1.13,1.36,2.5,2.38,4.11,3.06,1.61.68,3.4,1.03,5.38,1.03,1.77,0,3.3-.19,4.6-.58,1.3-.39,2.39-.83,3.27-1.31.88-.48,1.59-.92,2.11-1.31.52-.39.9-.58,1.13-.58.31,0,.54.12.71.35l.92,1.13c-.57.71-1.32,1.37-2.25,1.98-.93.61-1.97,1.14-3.12,1.58-1.14.44-2.37.79-3.68,1.04-1.31.26-2.62.39-3.95.39-2.41,0-4.6-.42-6.58-1.26-1.98-.84-3.68-2.06-5.1-3.66-1.42-1.61-2.51-3.57-3.27-5.89-.77-2.32-1.15-4.99-1.15-7.98,0-2.53.36-4.86,1.08-6.99.72-2.14,1.76-3.98,3.12-5.52,1.36-1.54,3.02-2.75,4.99-3.63,1.97-.87,4.21-1.31,6.71-1.31,1.98,0,3.82.34,5.52,1.03s3.17,1.68,4.42,2.99,2.24,2.92,2.96,4.83c.72,1.91,1.08,4.11,1.08,6.58,0,.52-.07.87-.21,1.06-.14.19-.38.28-.71.28h-25.63ZM564.75,320.97c0-1.89-.27-3.58-.8-5.08-.53-1.5-1.28-2.77-2.25-3.81-.97-1.04-2.12-1.83-3.45-2.39-1.33-.55-2.8-.83-4.41-.83-1.82,0-3.45.28-4.88.85s-2.68,1.38-3.73,2.44c-1.05,1.06-1.89,2.34-2.53,3.82-.64,1.49-1.06,3.15-1.27,4.99h23.33Z"/>
      <path class="cls-1" d="M580.18,313.08c1.63-2.03,3.51-3.66,5.65-4.89,2.13-1.23,4.51-1.84,7.13-1.84,1.93,0,3.64.31,5.12.92,1.47.61,2.7,1.5,3.66,2.66.97,1.16,1.7,2.55,2.19,4.18.5,1.63.74,3.47.74,5.52v22.51h-3.4v-22.51c0-3.3-.76-5.89-2.27-7.77-1.51-1.88-3.81-2.81-6.9-2.81-2.29,0-4.43.58-6.42,1.75-2,1.17-3.77,2.79-5.33,4.87v26.48h-3.4v-35.22h1.88c.59,0,.93.3,1.03.89l.32,5.27Z"/>
      <path class="cls-1" d="M639.58,311.62c-.12.12-.23.22-.34.3-.11.08-.25.12-.44.12-.24,0-.56-.16-.96-.48-.4-.32-.94-.67-1.63-1.04-.68-.38-1.54-.73-2.57-1.04-1.03-.32-2.27-.48-3.73-.48-2.03,0-3.83.36-5.4,1.08-1.57.72-2.9,1.75-3.98,3.1-1.09,1.34-1.91,2.97-2.46,4.88-.55,1.91-.83,4.06-.83,6.44s.29,4.67.87,6.58c.58,1.91,1.4,3.52,2.46,4.83,1.06,1.31,2.35,2.31,3.86,2.99,1.51.68,3.19,1.03,5.03,1.03,1.7,0,3.12-.2,4.27-.6,1.14-.4,2.09-.84,2.83-1.31.74-.47,1.33-.91,1.75-1.31s.78-.6,1.06-.6.52.12.71.35l.88,1.13c-.54.71-1.23,1.37-2.05,1.98-.83.61-1.76,1.14-2.8,1.59-1.04.45-2.17.8-3.38,1.04-1.22.25-2.48.37-3.81.37-2.24,0-4.29-.41-6.14-1.22-1.85-.81-3.45-1.99-4.78-3.54-1.33-1.55-2.37-3.44-3.12-5.68s-1.12-4.79-1.12-7.65c0-2.69.35-5.14,1.06-7.36s1.75-4.13,3.12-5.74c1.37-1.6,3.04-2.85,5.01-3.73,1.97-.88,4.23-1.33,6.78-1.33,2.29,0,4.32.37,6.09,1.1,1.77.73,3.32,1.72,4.64,2.97l-.88,1.2Z"/>
      <path class="cls-1" d="M654.48,294.77c0,.42-.09.82-.27,1.19-.18.37-.41.69-.69.97s-.61.51-.99.67c-.38.17-.78.25-1.2.25s-.83-.08-1.2-.25c-.38-.17-.71-.39-.99-.67s-.51-.61-.67-.97c-.17-.37-.25-.76-.25-1.19s.08-.83.25-1.22.39-.73.67-1.01.61-.51.99-.67c.38-.16.78-.25,1.2-.25s.83.08,1.2.25c.38.17.71.39.99.67s.51.62.69,1.01.27.8.27,1.22ZM653.03,306.92v35.22h-3.36v-35.22h3.36Z"/>
      <path class="cls-1" d="M664.04,311.91c1.84-1.84,3.78-3.23,5.81-4.18,2.03-.94,4.33-1.42,6.9-1.42,1.89,0,3.54.3,4.96.9,1.42.6,2.59,1.46,3.52,2.58.93,1.12,1.63,2.48,2.11,4.07.47,1.59.71,3.37.71,5.33v22.94h-1.34c-.71,0-1.15-.33-1.31-.99l-.5-4.53c-.97.94-1.93,1.79-2.88,2.55-.96.76-1.95,1.39-2.99,1.91-1.04.52-2.16.92-3.36,1.2-1.2.28-2.53.42-3.96.42-1.2,0-2.37-.18-3.5-.53-1.13-.35-2.14-.9-3.03-1.63s-1.59-1.67-2.12-2.81-.8-2.52-.8-4.12c0-1.49.42-2.87,1.27-4.14s2.18-2.38,4-3.33c1.82-.94,4.15-1.7,6.99-2.27,2.84-.57,6.26-.9,10.25-.99v-3.68c0-3.26-.7-5.76-2.11-7.52-1.4-1.76-3.49-2.64-6.25-2.64-1.7,0-3.14.24-4.34.71-1.19.47-2.2.99-3.03,1.56s-1.5,1.09-2.02,1.56c-.52.47-.96.71-1.31.71-.26,0-.47-.06-.64-.18-.17-.12-.31-.27-.42-.46l-.6-1.03ZM684.75,325.11c-3.35.12-6.24.38-8.66.8-2.42.41-4.41.97-5.98,1.68-1.57.71-2.73,1.55-3.49,2.53-.76.98-1.13,2.09-1.13,3.35,0,1.18.2,2.2.58,3.06.39.86.91,1.57,1.56,2.12.65.55,1.4.96,2.25,1.22s1.73.39,2.66.39c1.37,0,2.62-.15,3.77-.44,1.14-.29,2.21-.71,3.19-1.24s1.89-1.16,2.74-1.89,1.69-1.52,2.51-2.37v-9.2Z"/>
      <path class="cls-1" d="M703.02,290.63v51.51h-3.4v-51.51h3.4Z"/>
    </g>
  </g>
</svg>