<?xml version="1.0" encoding="UTF-8"?>
<svg id="LOGOTIPO_TEXTO_T" xmlns="http://www.w3.org/2000/svg" viewBox="0 0 560 110">
  <defs>
    <style>
      .cls-1 {
        fill: #2dd4bf;
        stroke-width: 0px;
      }
    </style>
  </defs>
  <g id="LOGOTIPO">
    <path class="cls-1" d="M347.51,18.82c-20.13,0-36.45,18.19-36.45,40.64s16.32,40.64,36.45,40.64,36.45-18.19,36.45-40.64-16.32-40.64-36.45-40.64ZM365.56,65.29c-1.8,5.99-7.9,18.33-18.17,18.37-11.33.05-21.21-14.9-17.69-22.05,1.33-2.7,4.94-5,8.61-4.76,4.11.27,7.91,3.71,9.08,8.65,5.01-5.49,4.05-12.81,0-15.78-4.47-3.27-13.8-2.05-18.17,4.97,2-8.73,5.46-11.71,8.37-12.75,3.1-1.11,6.68-.43,7.17-1.73.45-1.19-2.05-3.04-4.16-4.38,2.26-.34,11.09-1.45,18.26,3.52,11.72,8.13,7.18,24.33,6.69,25.94Z"/>
    <path class="cls-1" d="M111.85,102.1c-5.06-.11-12.39-.26-16.04-5.07-4.59-6.03,1.42-13.05,3.38-33.77.83-8.82,1.38-15.21-.84-22.8-2.89-9.89-8.97-16.68-13.29-20.64,4.71-1.18,12.19-2.34,20.88-.47,4.72,1.02,7.73,2.63,10.98,5.91,4.71,4.76,5.91,10.98,5.91,13.51,0,5.07-.47,6.67-1.69,15.2-.84,5.91-.58,10.2,0,14.35.69,4.94,1.43,9.77,4.75,11.25,1.77.79,3.06.44,4.54-.27,6.6-3.19,6.5-17.37,5.91-26.17-.53-7.91-3.04-19.72-8.47-33.77h36.69c-2.94,10.31-5.93,25.03-5.65,42.81.25,15.55,2.92,27.69,5.65,37.24-9.41.04-18.82.09-28.23.13v-6.33c-3.05,2.5-12,9.15-24.48,8.88Z"/>
    <path class="cls-1" d="M413.61,102.42c-5.06-.11-12.39-.26-16.04-5.07-4.59-6.03,1.42-13.05,3.38-33.77.83-8.82,1.38-15.21-.84-22.8-2.89-9.89-8.97-16.68-13.29-20.64,4.71-1.18,12.19-2.34,20.88-.47,4.72,1.02,7.73,2.63,10.98,5.91,4.71,4.76,5.91,10.98,5.91,13.51,0,5.07-.47,6.67-1.69,15.2-.84,5.91-.58,10.2,0,14.35.69,4.94,1.43,9.77,4.75,11.25,1.77.79,3.06.44,4.54-.27,6.6-3.19,6.5-17.37,5.91-26.17-.53-7.91-3.04-19.72-8.47-33.77h36.69c-2.94,10.31-5.93,25.03-5.65,42.81.25,15.55,2.92,27.69,5.65,37.24-9.41.04-18.82.09-28.23.13v-6.33c-3.05,2.5-12,9.15-24.48,8.88Z"/>
    <path class="cls-1" d="M289.37,28.33c10.46,10.85,6.46,31.35,8.65,53.61.38,3.82.84,6.86,1.07,8.18.66,3.89,1.36,6.67,1.91,9.41h-26.34v-40.02c0-11.91-4.44-18.68-11.37-18.68-7.62,0-13.17,7.38-13.17,20.21v38.49h-21.15v-40.02c0-11.91-4.3-18.68-11.37-18.68-7.76,0-13.31,7.38-13.31,20.21v38.49h-26.34c1.41-6.75,2.57-11.48,3.32-19.31,2.28-23.76.02-44.55-3.32-60.88h25.09v8.71c1.29-1.01,13.33-10.11,27.52-5.76,7.39,2.27,11.9,7.12,13.83,9.51,2.35-2.61,7.2-7.24,14.7-9.51,9.68-2.93,22.85-1.63,30.26,6.05Z"/>
    <path class="cls-1" d="M476.75,93.68l8.58-19.57c7.53,4.67,18.52,7.53,28.46,7.53s12.8-2.11,12.8-5.57c0-10.99-48.18,1.51-48.18-31.17,0-15.36,14.15-27.1,39.75-27.1,11.44,0,24.09,2.41,32.22,6.93l-8.58,19.42c-8.13-4.52-16.26-6.02-23.49-6.02-9.64,0-13.1,2.71-13.1,5.72,0,11.29,48.03-.9,48.03,31.47,0,15.06-13.85,26.8-40.35,26.8-13.85,0-28.16-3.46-36.13-8.43Z"/>
    <path class="cls-1" d="M11.83,7.57h28.79c-1.1,9.9-2.46,23.16-3.72,38.91-1.94,24.2-1.61,28.76,1.73,31.99,10.23,9.89,28.82-6.94,39.77,3.46,4.77,4.52,4.97,12.18,4.32,18.16H10.96c2.18-11.61,3.92-25.28,4.32-40.64.5-18.99-1.17-38.26-3.46-51.88Z"/>
  </g>
</svg>