<?xml version="1.0" encoding="UTF-8"?>
<svg id="LOGOTIPO_HORI_T" xmlns="http://www.w3.org/2000/svg" viewBox="0 0 925 264">
  <defs>
    <style>
      .cls-1 {
        fill: #2dd4bf;
        stroke-width: 0px;
      }
    </style>
  </defs>
  <g id="LOGOTIPO_LUMOUS">
    <g id="SIMBOLO">
      <g id="FIRE_SIMBOLO">
        <path id="FIRE_2" class="cls-1" d="M82.97,68.98c-2.17-29.18,9.92-51.16,15.2-59.61,5.11,46.22,21.78,71.04,36.63,85.26,19.01,18.2,34.37,18.4,46.74,40.17,9.86,17.36,14.98,43.45,4.38,68.28-9.9,23.18-28.79,34.25-35.13,37.62,11.83-45.02,3.84-68.75-6.13-82.17-12.52-16.85-27.78-16.91-44.18-40.9-15.22-22.25-17.18-44.24-17.5-48.66Z"/>
        <path id="FIRE_1" class="cls-1" d="M59.94,213.31c-4.27-3.1-15.16-11.75-22.27-27.02-2.27-4.86-5.73-13.77-6.57-28.48-2.1-36.49,14.71-59.81,10.22-62.44-4.14-2.43-20.58,14.37-30.31,33.59-3.61,7.13-9.98,20.04-10.22,37.98-.38,28.56,14.84,48.14,18.99,53.31,4.69,5.86,9.68,10.62,14.82,14.53,7.29,5.56,20.74,13.03,37.4,16.87,28.51,6.57,53.82,1.02,64.63-4.38,0,0-2.68-10.97-4.76-19.75-.65-2.72-4.27-4.73-7.17-3.87-23.12,6.83-42.11.62-44.3-.11-8.54-2.85-14.75-6.09-20.45-10.22Z"/>
      </g>
      <g id="HOME_SIMBOLO">
        <polygon id="TELHADO" class="cls-1" points="91.59 152.11 136.26 177.9 136.26 172.12 116.23 160.55 116.23 147.46 111.22 147.46 111.22 157.66 91.59 146.33 46.77 172.2 46.77 172.2 46.77 177.93 46.82 177.96 91.59 152.11"/>
        <rect id="PORTA" class="cls-1" x="65.99" y="174.28" width="16.09" height="27.51"/>
        <g id="JANELAS">
          <rect id="JANELA_4" class="cls-1" x="106.81" y="174.28" width="10.01" height="9.92"/>
          <rect id="JANELA_3" class="cls-1" x="93.92" y="174.28" width="10.01" height="9.92"/>
          <rect id="JANELA_2" class="cls-1" x="106.81" y="187.17" width="10.01" height="9.92"/>
          <rect id="JANELA_1" class="cls-1" x="93.92" y="187.17" width="10.01" height="9.92"/>
        </g>
      </g>
    </g>
    <g>
      <g id="LOGOTIPO">
        <path class="cls-1" d="M514.81,75.64c-17.37,0-31.46,15.7-31.46,35.07s14.08,35.07,31.46,35.07,31.46-15.7,31.46-35.07-14.08-35.07-31.46-35.07ZM530.38,115.74c-1.56,5.17-6.82,15.82-15.68,15.86-9.78.04-18.3-12.86-15.26-19.03,1.15-2.33,4.26-4.31,7.43-4.1,3.55.23,6.83,3.2,7.84,7.46,4.32-4.74,3.49-11.06,0-13.62-3.86-2.82-11.91-1.77-15.68,4.29,1.72-7.53,4.71-10.1,7.22-11.01,2.67-.96,5.76-.37,6.19-1.49.39-1.02-1.77-2.62-3.59-3.78,1.95-.3,9.57-1.25,15.76,3.04,10.11,7.01,6.19,20.99,5.78,22.38Z"/>
        <path class="cls-1" d="M311.89,147.38c-4.37-.09-10.69-.23-13.84-4.37-3.96-5.2,1.23-11.26,2.91-29.14.72-7.61,1.19-13.12-.73-19.67-2.5-8.53-7.74-14.4-11.46-17.81,4.06-1.02,10.52-2.02,18.02-.41,4.08.88,6.67,2.27,9.47,5.1,4.06,4.11,5.1,9.47,5.1,11.66,0,4.37-.41,5.76-1.46,13.11-.73,5.1-.5,8.8,0,12.39.59,4.26,1.23,8.43,4.1,9.71,1.53.68,2.64.38,3.91-.24,5.7-2.76,5.61-14.99,5.1-22.59-.46-6.83-2.62-17.02-7.31-29.14h31.66c-2.54,8.9-5.12,21.6-4.87,36.94.21,13.42,2.52,23.89,4.87,32.14-8.12.04-16.24.08-24.36.12v-5.46c-2.63,2.15-10.35,7.89-21.13,7.66Z"/>
        <path class="cls-1" d="M571.89,147.38c-4.37-.09-10.69-.23-13.84-4.37-3.96-5.2,1.23-11.26,2.91-29.14.72-7.61,1.19-13.12-.73-19.67-2.5-8.53-7.74-14.4-11.46-17.81,4.06-1.02,10.52-2.02,18.02-.41,4.08.88,6.67,2.27,9.47,5.1,4.06,4.11,5.1,9.47,5.1,11.66,0,4.37-.41,5.76-1.46,13.11-.73,5.1-.5,8.8,0,12.39.59,4.26,1.23,8.43,4.1,9.71,1.53.68,2.64.38,3.91-.24,5.7-2.76,5.61-14.99,5.1-22.59-.46-6.83-2.62-17.02-7.31-29.14h31.66c-2.54,8.9-5.12,21.6-4.87,36.94.21,13.42,2.52,23.89,4.87,32.14-8.12.04-16.24.08-24.36.12v-5.46c-2.63,2.15-10.35,7.89-21.13,7.66Z"/>
        <path class="cls-1" d="M464.64,83.84c9.03,9.36,5.57,27.05,7.46,46.26.32,3.3.73,5.92.92,7.06.57,3.35,1.65,7.82,1.65,7.82h-22.65v-34.54c0-10.28-3.8-16.12-9.73-16.12-6.53,0-11.27,6.37-11.27,17.44v33.22h-19v-34.54c0-10.28-3.66-16.12-9.67-16.12-6.61,0-11.33,6.37-11.33,17.44v33.22h-22.51c1.21-5.53,2.22-9.6,2.87-16.37,1.97-20.5.01-38.44-2.87-52.63h21.51v7.61c1.25-.87,11.64-8.72,23.89-4.97,6.38,1.95,10.27,6.14,11.94,8.21,2.03-2.25,6.21-6.25,12.68-8.21,8.35-2.52,19.72-1.41,26.11,5.22Z"/>
        <path class="cls-1" d="M626.33,140.24l7.41-16.89c6.5,4.03,15.98,6.5,24.56,6.5s11.04-1.82,11.04-4.81c0-9.48-41.58,1.3-41.58-26.89,0-13.25,12.21-23.39,34.3-23.39,9.87,0,20.79,2.08,27.8,5.98l-7.41,16.76c-7.02-3.9-14.03-5.2-20.27-5.2-8.32,0-11.3,2.34-11.3,4.94,0,9.74,41.45-.78,41.45,27.15,0,12.99-11.95,23.13-34.82,23.13-11.95,0-24.3-2.99-31.18-7.28Z"/>
        <path class="cls-1" d="M225.07,65.98h24.9c-.95,8.56-2.13,20.03-3.22,33.64-1.68,20.93-1.39,24.87,1.5,27.66,8.84,8.55,24.92-6,34.39,2.99,4.12,3.91,4.3,10.53,3.74,15.7h-62.06c1.88-10.04,3.39-21.86,3.74-35.14.43-16.42-1.01-33.08-2.99-44.86Z"/>
      </g>
      <g>
        <path class="cls-1" d="M255.5,206.63h-2.84c-.34,0-.61-.09-.83-.27-.22-.18-.38-.41-.5-.7l-5.98-14.8h-25.02l-5.98,14.8c-.1.26-.26.49-.5.68-.24.19-.53.29-.86.29h-2.81l20.84-50.94h3.64l20.84,50.94ZM244.23,188.12l-10.37-25.74c-.36-.84-.71-1.85-1.04-3.02-.14.58-.3,1.12-.47,1.64s-.35.99-.54,1.42l-10.37,25.7h22.79Z"/>
        <path class="cls-1" d="M289.16,170.81v35.82h-1.91c-.6,0-.95-.31-1.04-.94l-.32-5.33c-1.66,2.06-3.57,3.72-5.74,4.97-2.17,1.25-4.59,1.87-7.25,1.87-1.99,0-3.73-.31-5.22-.94-1.49-.62-2.72-1.52-3.71-2.7-.98-1.18-1.73-2.59-2.23-4.25-.5-1.66-.76-3.53-.76-5.62v-22.9h3.46v22.9c0,3.36.77,5.99,2.3,7.9,1.54,1.91,3.88,2.86,7.02,2.86,2.33,0,4.51-.59,6.53-1.78,2.03-1.19,3.83-2.84,5.42-4.95v-26.93h3.46Z"/>
        <path class="cls-1" d="M310.72,207.2c-2.42,0-4.31-.67-5.67-2.02-1.36-1.34-2.03-3.42-2.03-6.23v-24.48h-5.15c-.26,0-.48-.07-.65-.22-.17-.14-.25-.35-.25-.61v-1.33l6.12-.43.86-12.82c.05-.22.14-.41.29-.58.14-.17.35-.25.61-.25h1.62v13.68h11.3v2.56h-11.3v24.3c0,.98.13,1.83.38,2.54.25.71.6,1.29,1.04,1.75.44.46.97.79,1.57,1.01.6.22,1.25.32,1.94.32.86,0,1.61-.13,2.23-.38s1.16-.53,1.62-.83c.46-.3.83-.58,1.12-.83s.52-.38.68-.38c.19,0,.38.12.58.36l.94,1.51c-.91,1.01-2.07,1.82-3.47,2.43-1.4.61-2.86.92-4.37.92Z"/>
        <path class="cls-1" d="M339.66,170.23c2.57,0,4.87.44,6.89,1.31,2.03.88,3.74,2.12,5.13,3.73,1.39,1.61,2.45,3.55,3.19,5.81s1.1,4.81,1.1,7.61-.37,5.34-1.1,7.6c-.73,2.26-1.79,4.19-3.19,5.8-1.39,1.61-3.1,2.84-5.13,3.71-2.03.86-4.33,1.3-6.89,1.3s-4.87-.43-6.89-1.3c-2.03-.86-3.74-2.1-5.15-3.71-1.4-1.61-2.47-3.54-3.2-5.8-.73-2.26-1.1-4.79-1.1-7.6s.37-5.35,1.1-7.61c.73-2.27,1.8-4.21,3.2-5.81,1.4-1.61,3.12-2.85,5.15-3.73,2.03-.88,4.33-1.31,6.89-1.31ZM339.66,204.39c2.14,0,4-.37,5.6-1.1,1.6-.73,2.93-1.78,4-3.15,1.07-1.37,1.87-3.02,2.39-4.95.53-1.93.79-4.1.79-6.5s-.26-4.54-.79-6.48c-.53-1.94-1.33-3.61-2.39-4.99-1.07-1.38-2.4-2.44-4-3.19-1.6-.74-3.46-1.12-5.6-1.12s-4,.37-5.6,1.12c-1.6.74-2.93,1.81-4,3.19-1.07,1.38-1.87,3.04-2.41,4.99-.54,1.94-.81,4.1-.81,6.48s.27,4.57.81,6.5c.54,1.93,1.34,3.58,2.41,4.95,1.07,1.37,2.4,2.42,4,3.15,1.6.73,3.46,1.1,5.6,1.1Z"/>
        <path class="cls-1" d="M365.66,206.63v-35.82h1.91c.6,0,.95.3,1.04.9l.32,5.18c1.39-1.99,2.99-3.6,4.79-4.82s3.83-1.84,6.08-1.84c2.62,0,4.71.76,6.28,2.27,1.57,1.51,2.63,3.61,3.19,6.3.43-1.46,1.04-2.74,1.82-3.82.78-1.08,1.67-1.97,2.68-2.68,1.01-.71,2.11-1.23,3.29-1.57,1.19-.34,2.41-.5,3.65-.5,1.78,0,3.37.29,4.79.88,1.42.59,2.62,1.46,3.6,2.61.98,1.15,1.74,2.57,2.27,4.25.53,1.68.79,3.6.79,5.76v22.9h-3.42v-22.9c0-3.5-.76-6.17-2.27-8.01-1.51-1.84-3.67-2.75-6.48-2.75-1.25,0-2.44.23-3.58.68-1.14.46-2.15,1.13-3.02,2.03s-1.57,2.02-2.09,3.37c-.52,1.34-.77,2.9-.77,4.68v22.9h-3.46v-22.9c0-3.48-.69-6.14-2.07-7.99-1.38-1.85-3.4-2.77-6.07-2.77-1.94,0-3.74.58-5.4,1.73-1.66,1.15-3.13,2.75-4.43,4.79v27.14h-3.46Z"/>
        <path class="cls-1" d="M422.61,175.88c1.87-1.87,3.84-3.29,5.9-4.25,2.06-.96,4.4-1.44,7.02-1.44,1.92,0,3.6.31,5.04.92,1.44.61,2.63,1.49,3.58,2.63.95,1.14,1.66,2.52,2.14,4.14s.72,3.43.72,5.42v23.33h-1.37c-.72,0-1.17-.34-1.33-1.01l-.5-4.61c-.98.96-1.96,1.82-2.93,2.59-.97.77-1.99,1.42-3.04,1.94-1.06.53-2.2.94-3.42,1.22-1.22.29-2.57.43-4.03.43-1.22,0-2.41-.18-3.56-.54-1.15-.36-2.18-.91-3.08-1.66-.9-.74-1.62-1.7-2.16-2.86-.54-1.16-.81-2.56-.81-4.19,0-1.51.43-2.92,1.3-4.21.86-1.3,2.22-2.42,4.07-3.38,1.85-.96,4.22-1.73,7.11-2.3,2.89-.58,6.37-.91,10.42-1.01v-3.74c0-3.31-.71-5.86-2.14-7.65-1.43-1.79-3.55-2.68-6.35-2.68-1.73,0-3.2.24-4.41.72-1.21.48-2.24,1.01-3.08,1.58-.84.58-1.52,1.1-2.05,1.58-.53.48-.97.72-1.33.72-.26,0-.48-.06-.65-.18-.17-.12-.31-.28-.43-.47l-.61-1.04ZM443.67,189.31c-3.41.12-6.34.39-8.8.81s-4.49.99-6.08,1.71c-1.6.72-2.78,1.58-3.55,2.57-.77,1-1.15,2.13-1.15,3.4,0,1.2.2,2.24.59,3.11.4.88.92,1.6,1.58,2.16s1.42.98,2.29,1.24c.86.26,1.76.4,2.7.4,1.39,0,2.67-.15,3.83-.45,1.16-.3,2.24-.72,3.24-1.26,1-.54,1.93-1.18,2.79-1.93.86-.74,1.72-1.55,2.56-2.41v-9.36Z"/>
        <path class="cls-1" d="M483.95,202.02c-1.03,1.34-2.5,2.47-4.39,3.38-1.9.91-4.04,1.46-6.44,1.66l-.94,2.95c2.18.36,3.83.91,4.95,1.64,1.12.73,1.67,1.81,1.67,3.22,0,.72-.16,1.37-.49,1.94-.32.58-.78,1.06-1.37,1.46-.59.4-1.29.7-2.11.9-.82.2-1.7.31-2.66.31s-1.94-.14-2.88-.41c-.94-.28-1.72-.64-2.34-1.1l.36-1.01c.14-.26.34-.4.58-.4.12,0,.28.07.49.2.2.13.47.27.79.41s.73.28,1.21.41c.48.13,1.07.2,1.76.2,1.25,0,2.21-.26,2.88-.79.67-.53,1.01-1.24,1.01-2.12,0-.6-.16-1.1-.47-1.51-.31-.41-.75-.74-1.31-.99-.56-.25-1.24-.46-2.02-.61-.78-.16-1.64-.29-2.57-.41l1.37-4.25c-2.18-.1-4.18-.58-5.98-1.44-1.8-.86-3.35-2.08-4.64-3.65-1.3-1.57-2.3-3.47-3.02-5.71s-1.08-4.76-1.08-7.6.36-5.23,1.08-7.49c.72-2.26,1.78-4.2,3.17-5.83,1.39-1.63,3.09-2.9,5.09-3.8s4.3-1.35,6.89-1.35c2.33,0,4.39.37,6.19,1.12,1.8.74,3.37,1.75,4.72,3.02l-.9,1.22c-.12.12-.23.22-.34.31-.11.08-.26.13-.45.13-.24,0-.56-.16-.97-.49-.41-.32-.96-.68-1.66-1.06-.7-.38-1.57-.74-2.61-1.06-1.04-.32-2.31-.49-3.8-.49-2.06,0-3.89.37-5.49,1.1-1.6.73-2.95,1.78-4.05,3.15-1.1,1.37-1.94,3.02-2.5,4.97-.56,1.94-.85,4.13-.85,6.55s.29,4.75.88,6.7c.59,1.94,1.42,3.58,2.5,4.91s2.39,2.35,3.92,3.04c1.54.7,3.24,1.04,5.11,1.04,1.73,0,3.17-.2,4.34-.61,1.16-.41,2.12-.85,2.88-1.33s1.35-.92,1.78-1.33c.43-.41.79-.61,1.08-.61s.53.12.72.36l.9,1.15Z"/>
        <path class="cls-1" d="M491.4,175.88c1.87-1.87,3.84-3.29,5.9-4.25,2.06-.96,4.4-1.44,7.02-1.44,1.92,0,3.6.31,5.04.92,1.44.61,2.63,1.49,3.58,2.63.95,1.14,1.66,2.52,2.14,4.14s.72,3.43.72,5.42v23.33h-1.37c-.72,0-1.17-.34-1.33-1.01l-.5-4.61c-.98.96-1.96,1.82-2.93,2.59-.97.77-1.99,1.42-3.04,1.94-1.06.53-2.2.94-3.42,1.22-1.22.29-2.57.43-4.03.43-1.22,0-2.41-.18-3.56-.54-1.15-.36-2.18-.91-3.08-1.66-.9-.74-1.62-1.7-2.16-2.86-.54-1.16-.81-2.56-.81-4.19,0-1.51.43-2.92,1.3-4.21.86-1.3,2.22-2.42,4.07-3.38,1.85-.96,4.22-1.73,7.11-2.3,2.89-.58,6.37-.91,10.42-1.01v-3.74c0-3.31-.71-5.86-2.14-7.65-1.43-1.79-3.55-2.68-6.35-2.68-1.73,0-3.2.24-4.41.72-1.21.48-2.24,1.01-3.08,1.58-.84.58-1.52,1.1-2.05,1.58-.53.48-.97.72-1.33.72-.26,0-.48-.06-.65-.18-.17-.12-.31-.28-.43-.47l-.61-1.04ZM512.46,189.31c-3.41.12-6.34.39-8.8.81s-4.49.99-6.08,1.71c-1.6.72-2.78,1.58-3.55,2.57-.77,1-1.15,2.13-1.15,3.4,0,1.2.2,2.24.59,3.11.4.88.92,1.6,1.58,2.16s1.42.98,2.29,1.24c.86.26,1.76.4,2.7.4,1.39,0,2.67-.15,3.83-.45,1.16-.3,2.24-.72,3.24-1.26,1-.54,1.93-1.18,2.79-1.93.86-.74,1.72-1.55,2.56-2.41v-9.36ZM507.75,160.55c1.06,0,1.84-.33,2.36-.99.52-.66.8-1.55.85-2.68h2.12c0,.86-.11,1.67-.34,2.43-.23.76-.56,1.41-1.01,1.96-.44.55-.99.98-1.64,1.3-.65.31-1.39.47-2.23.47-.79,0-1.54-.2-2.23-.59s-1.37-.83-2.02-1.3c-.65-.47-1.28-.9-1.89-1.3-.61-.4-1.23-.59-1.85-.59-1.01,0-1.78.34-2.32,1.03s-.82,1.57-.85,2.65h-2.2c0-.86.12-1.67.36-2.43.24-.76.59-1.41,1.04-1.96.46-.55,1.01-.98,1.66-1.3.65-.31,1.38-.47,2.2-.47s1.57.2,2.27.59c.7.4,1.36.83,2,1.3.63.47,1.26.9,1.87,1.3.61.4,1.23.59,1.85.59Z"/>
        <path class="cls-1" d="M541.44,170.23c2.57,0,4.87.44,6.89,1.31,2.03.88,3.74,2.12,5.13,3.73,1.39,1.61,2.45,3.55,3.19,5.81s1.1,4.81,1.1,7.61-.37,5.34-1.1,7.6c-.73,2.26-1.79,4.19-3.19,5.8-1.39,1.61-3.1,2.84-5.13,3.71-2.03.86-4.33,1.3-6.89,1.3s-4.87-.43-6.89-1.3c-2.03-.86-3.74-2.1-5.15-3.71-1.4-1.61-2.47-3.54-3.2-5.8-.73-2.26-1.1-4.79-1.1-7.6s.37-5.35,1.1-7.61c.73-2.27,1.8-4.21,3.2-5.81,1.4-1.61,3.12-2.85,5.15-3.73,2.03-.88,4.33-1.31,6.89-1.31ZM541.44,204.39c2.14,0,4-.37,5.6-1.1,1.6-.73,2.93-1.78,4-3.15,1.07-1.37,1.87-3.02,2.39-4.95.53-1.93.79-4.1.79-6.5s-.26-4.54-.79-6.48c-.53-1.94-1.33-3.61-2.39-4.99-1.07-1.38-2.4-2.44-4-3.19-1.6-.74-3.46-1.12-5.6-1.12s-4,.37-5.6,1.12c-1.6.74-2.93,1.81-4,3.19-1.07,1.38-1.87,3.04-2.41,4.99-.54,1.94-.81,4.1-.81,6.48s.27,4.57.81,6.5c.54,1.93,1.34,3.58,2.41,4.95,1.07,1.37,2.4,2.42,4,3.15,1.6.73,3.46,1.1,5.6,1.1Z"/>
        <path class="cls-1" d="M623.74,206.63h-3.17c-.41,0-.75-.07-1.03-.2-.28-.13-.53-.38-.77-.74l-16.34-20.66c-.19-.26-.39-.49-.59-.68-.2-.19-.43-.34-.68-.45s-.55-.19-.9-.23c-.35-.05-.77-.07-1.28-.07h-6.66v23.04h-3.71v-50.94h13.03c5.86,0,10.24,1.13,13.16,3.4s4.37,5.6,4.37,9.99c0,1.94-.34,3.72-1.01,5.33-.67,1.61-1.64,3.02-2.9,4.23-1.26,1.21-2.78,2.2-4.57,2.97-1.79.77-3.8,1.28-6.03,1.55.58.36,1.09.84,1.55,1.44l17.53,22.03ZM601.13,180.85c2.26,0,4.28-.27,6.07-.81,1.79-.54,3.3-1.31,4.54-2.32,1.24-1.01,2.18-2.22,2.83-3.64.65-1.42.97-3.01.97-4.79,0-3.62-1.18-6.31-3.55-8.06-2.36-1.75-5.81-2.63-10.35-2.63h-9.32v22.25h8.82Z"/>
        <path class="cls-1" d="M629.64,187.29v.68c0,2.69.31,5.05.94,7.09.62,2.04,1.51,3.75,2.66,5.13,1.15,1.38,2.54,2.42,4.18,3.11,1.63.7,3.46,1.04,5.47,1.04,1.8,0,3.36-.2,4.68-.59,1.32-.4,2.43-.84,3.33-1.33.9-.49,1.61-.94,2.14-1.33.53-.4.91-.59,1.15-.59.31,0,.55.12.72.36l.94,1.15c-.58.72-1.34,1.39-2.29,2.02s-2,1.16-3.17,1.6c-1.16.44-2.41.8-3.74,1.06-1.33.26-2.67.4-4.01.4-2.45,0-4.68-.43-6.7-1.28-2.02-.85-3.74-2.09-5.18-3.73-1.44-1.63-2.55-3.63-3.33-5.99s-1.17-5.07-1.17-8.12c0-2.57.37-4.94,1.1-7.11.73-2.17,1.79-4.04,3.17-5.62,1.38-1.57,3.07-2.8,5.08-3.69,2-.89,4.28-1.33,6.82-1.33,2.02,0,3.89.35,5.62,1.04,1.73.7,3.23,1.71,4.5,3.04,1.27,1.33,2.27,2.97,3.01,4.91.73,1.94,1.1,4.18,1.1,6.7,0,.53-.07.89-.22,1.08-.14.19-.38.29-.72.29h-26.06ZM653.55,185.1c0-1.92-.27-3.64-.81-5.17-.54-1.52-1.3-2.81-2.29-3.87-.98-1.06-2.15-1.87-3.51-2.43-1.36-.56-2.85-.85-4.48-.85-1.85,0-3.5.29-4.97.86-1.46.58-2.73,1.4-3.8,2.48-1.07,1.08-1.93,2.38-2.57,3.89-.65,1.51-1.08,3.2-1.3,5.08h23.72Z"/>
        <path class="cls-1" d="M685.66,175.23c-.19.34-.47.5-.83.5-.26,0-.6-.15-1.01-.45-.41-.3-.95-.64-1.64-1.01-.68-.37-1.53-.71-2.54-1.01-1.01-.3-2.23-.45-3.67-.45-1.3,0-2.48.19-3.55.56-1.07.37-1.98.87-2.74,1.49-.76.62-1.34,1.35-1.75,2.18-.41.83-.61,1.7-.61,2.61,0,1.13.29,2.06.86,2.81.58.74,1.33,1.38,2.25,1.91.92.53,1.99.98,3.19,1.37,1.2.38,2.42.77,3.65,1.15,1.24.38,2.45.81,3.65,1.28,1.2.47,2.26,1.05,3.19,1.75.92.7,1.67,1.55,2.25,2.56s.86,2.23.86,3.67c0,1.56-.28,3.01-.83,4.36-.55,1.34-1.36,2.51-2.43,3.49-1.07.98-2.38,1.76-3.94,2.34-1.56.58-3.35.86-5.36.86-2.52,0-4.69-.4-6.52-1.21-1.82-.8-3.46-1.85-4.9-3.15l.79-1.22c.12-.19.26-.34.41-.43.16-.1.37-.14.63-.14.31,0,.69.19,1.13.58.44.38,1.04.8,1.78,1.24.74.44,1.66.86,2.75,1.24,1.09.38,2.44.58,4.05.58,1.51,0,2.84-.21,4-.63,1.15-.42,2.11-.99,2.88-1.71.77-.72,1.35-1.57,1.75-2.54.4-.97.59-2,.59-3.08,0-1.2-.29-2.2-.86-2.99s-1.33-1.46-2.27-2.02c-.94-.55-2-1.02-3.19-1.4-1.19-.38-2.41-.77-3.65-1.15-1.25-.38-2.47-.8-3.65-1.26-1.19-.46-2.25-1.03-3.19-1.73-.94-.7-1.69-1.54-2.27-2.54-.58-1-.86-2.24-.86-3.73,0-1.27.28-2.5.83-3.67.55-1.18,1.34-2.21,2.36-3.1,1.02-.89,2.26-1.6,3.73-2.12,1.46-.53,3.11-.79,4.93-.79,2.18,0,4.12.31,5.81.94,1.69.62,3.23,1.58,4.63,2.88l-.72,1.19Z"/>
        <path class="cls-1" d="M701.86,158.46c0,.43-.09.83-.27,1.21s-.41.7-.7.99c-.29.29-.62.52-1.01.68-.38.17-.79.25-1.22.25s-.84-.08-1.22-.25c-.38-.17-.72-.4-1.01-.68-.29-.29-.52-.62-.68-.99-.17-.37-.25-.77-.25-1.21s.08-.85.25-1.24c.17-.4.4-.74.68-1.03s.62-.52,1.01-.68c.38-.17.79-.25,1.22-.25s.84.08,1.22.25c.38.17.72.4,1.01.68s.52.63.7,1.03.27.81.27,1.24ZM700.38,170.81v35.82h-3.42v-35.82h3.42Z"/>
        <path class="cls-1" d="M740.45,154.25v52.38h-1.87c-.62,0-.98-.31-1.08-.94l-.36-5.65c-1.58,2.16-3.43,3.88-5.54,5.15-2.11,1.27-4.49,1.91-7.13,1.91-4.42,0-7.85-1.52-10.3-4.57-2.45-3.05-3.67-7.62-3.67-13.72,0-2.62.34-5.06,1.03-7.33.68-2.27,1.69-4.24,3.01-5.9,1.32-1.67,2.95-2.98,4.88-3.94,1.93-.96,4.16-1.44,6.68-1.44s4.52.44,6.3,1.33c1.78.89,3.32,2.21,4.64,3.96v-21.24h3.42ZM737.03,178.51c-1.37-2.06-2.89-3.52-4.55-4.36-1.67-.84-3.57-1.26-5.71-1.26s-3.96.38-5.54,1.15c-1.58.77-2.91,1.85-3.98,3.26-1.07,1.4-1.87,3.08-2.41,5.04-.54,1.96-.81,4.11-.81,6.46,0,5.33.98,9.25,2.93,11.75,1.96,2.51,4.78,3.76,8.48,3.76,2.35,0,4.5-.61,6.44-1.84,1.94-1.22,3.66-2.94,5.15-5.15v-18.83Z"/>
        <path class="cls-1" d="M753.48,187.29v.68c0,2.69.31,5.05.94,7.09.62,2.04,1.51,3.75,2.66,5.13,1.15,1.38,2.54,2.42,4.18,3.11,1.63.7,3.46,1.04,5.47,1.04,1.8,0,3.36-.2,4.68-.59,1.32-.4,2.43-.84,3.33-1.33.9-.49,1.61-.94,2.14-1.33.53-.4.91-.59,1.15-.59.31,0,.55.12.72.36l.94,1.15c-.58.72-1.34,1.39-2.29,2.02s-2,1.16-3.17,1.6c-1.16.44-2.41.8-3.74,1.06-1.33.26-2.67.4-4.01.4-2.45,0-4.68-.43-6.7-1.28-2.02-.85-3.74-2.09-5.18-3.73-1.44-1.63-2.55-3.63-3.33-5.99s-1.17-5.07-1.17-8.12c0-2.57.37-4.94,1.1-7.11.73-2.17,1.79-4.04,3.17-5.62,1.38-1.57,3.07-2.8,5.08-3.69,2-.89,4.28-1.33,6.82-1.33,2.02,0,3.89.35,5.62,1.04,1.73.7,3.23,1.71,4.5,3.04,1.27,1.33,2.27,2.97,3.01,4.91.73,1.94,1.1,4.18,1.1,6.7,0,.53-.07.89-.22,1.08-.14.19-.38.29-.72.29h-26.06ZM777.38,185.1c0-1.92-.27-3.64-.81-5.17-.54-1.52-1.3-2.81-2.29-3.87-.98-1.06-2.15-1.87-3.51-2.43-1.36-.56-2.85-.85-4.48-.85-1.85,0-3.5.29-4.97.86-1.46.58-2.73,1.4-3.8,2.48-1.07,1.08-1.93,2.38-2.57,3.89-.65,1.51-1.08,3.2-1.3,5.08h23.72Z"/>
        <path class="cls-1" d="M793.08,177.07c1.66-2.06,3.57-3.72,5.74-4.97,2.17-1.25,4.59-1.87,7.25-1.87,1.97,0,3.7.31,5.2.94,1.5.62,2.74,1.52,3.73,2.7.98,1.18,1.73,2.59,2.23,4.25.5,1.66.76,3.53.76,5.62v22.9h-3.46v-22.9c0-3.36-.77-5.99-2.3-7.9-1.54-1.91-3.88-2.86-7.02-2.86-2.33,0-4.51.59-6.53,1.78-2.03,1.19-3.83,2.84-5.42,4.95v26.93h-3.46v-35.82h1.91c.6,0,.95.3,1.04.9l.32,5.36Z"/>
        <path class="cls-1" d="M853.49,175.59c-.12.12-.23.22-.34.31-.11.08-.26.13-.45.13-.24,0-.56-.16-.97-.49-.41-.32-.96-.68-1.66-1.06-.7-.38-1.57-.74-2.61-1.06-1.04-.32-2.31-.49-3.8-.49-2.06,0-3.89.37-5.49,1.1-1.6.73-2.95,1.78-4.05,3.15-1.1,1.37-1.94,3.02-2.5,4.97-.56,1.94-.85,4.13-.85,6.55s.29,4.75.88,6.7,1.42,3.58,2.5,4.91c1.08,1.33,2.39,2.35,3.92,3.04,1.54.7,3.24,1.04,5.11,1.04,1.73,0,3.17-.2,4.34-.61,1.16-.41,2.12-.85,2.88-1.33.76-.48,1.35-.92,1.78-1.33.43-.41.79-.61,1.08-.61s.53.12.72.36l.9,1.15c-.55.72-1.25,1.39-2.09,2.02s-1.79,1.16-2.84,1.62c-1.06.46-2.2.81-3.44,1.06s-2.53.38-3.87.38c-2.28,0-4.36-.41-6.25-1.24-1.88-.83-3.5-2.03-4.86-3.6-1.36-1.57-2.41-3.5-3.17-5.78-.76-2.28-1.13-4.87-1.13-7.78,0-2.74.36-5.23,1.08-7.49.72-2.26,1.78-4.2,3.17-5.83,1.39-1.63,3.09-2.9,5.09-3.8s4.3-1.35,6.89-1.35c2.33,0,4.39.37,6.19,1.12,1.8.74,3.37,1.75,4.72,3.02l-.9,1.22Z"/>
        <path class="cls-1" d="M868.64,158.46c0,.43-.09.83-.27,1.21-.18.37-.41.7-.7.99-.29.29-.62.52-1.01.68-.38.17-.79.25-1.22.25s-.84-.08-1.22-.25c-.38-.17-.72-.4-1.01-.68-.29-.29-.52-.62-.68-.99s-.25-.77-.25-1.21.08-.85.25-1.24.4-.74.68-1.03c.29-.29.62-.52,1.01-.68.38-.17.79-.25,1.22-.25s.84.08,1.22.25c.38.17.72.4,1.01.68s.52.63.7,1.03c.18.4.27.81.27,1.24ZM867.17,170.81v35.82h-3.42v-35.82h3.42Z"/>
        <path class="cls-1" d="M878.36,175.88c1.87-1.87,3.84-3.29,5.9-4.25,2.06-.96,4.4-1.44,7.02-1.44,1.92,0,3.6.31,5.04.92,1.44.61,2.63,1.49,3.58,2.63.95,1.14,1.66,2.52,2.14,4.14.48,1.62.72,3.43.72,5.42v23.33h-1.37c-.72,0-1.16-.34-1.33-1.01l-.5-4.61c-.98.96-1.96,1.82-2.93,2.59-.97.77-1.99,1.42-3.04,1.94-1.06.53-2.2.94-3.42,1.22-1.22.29-2.57.43-4.03.43-1.22,0-2.41-.18-3.56-.54-1.15-.36-2.18-.91-3.08-1.66-.9-.74-1.62-1.7-2.16-2.86-.54-1.16-.81-2.56-.81-4.19,0-1.51.43-2.92,1.3-4.21.86-1.3,2.22-2.42,4.07-3.38,1.85-.96,4.22-1.73,7.11-2.3,2.89-.58,6.37-.91,10.42-1.01v-3.74c0-3.31-.71-5.86-2.14-7.65-1.43-1.79-3.55-2.68-6.35-2.68-1.73,0-3.2.24-4.41.72-1.21.48-2.24,1.01-3.08,1.58s-1.52,1.1-2.05,1.58c-.53.48-.97.72-1.33.72-.26,0-.48-.06-.65-.18s-.31-.28-.43-.47l-.61-1.04ZM899.42,189.31c-3.41.12-6.34.39-8.8.81s-4.49.99-6.08,1.71c-1.6.72-2.78,1.58-3.55,2.57-.77,1-1.15,2.13-1.15,3.4,0,1.2.2,2.24.59,3.11.4.88.92,1.6,1.58,2.16s1.42.98,2.29,1.24c.86.26,1.76.4,2.7.4,1.39,0,2.67-.15,3.83-.45,1.16-.3,2.24-.72,3.24-1.26s1.93-1.18,2.79-1.93c.86-.74,1.72-1.55,2.56-2.41v-9.36Z"/>
        <path class="cls-1" d="M918,154.25v52.38h-3.46v-52.38h3.46Z"/>
      </g>
    </g>
  </g>
</svg>