<?xml version="1.0" encoding="UTF-8"?>
<svg id="LOGOTIPO_VERT_T" xmlns="http://www.w3.org/2000/svg" viewBox="0 0 405 290">
  <defs>
    <style>
      .cls-1 {
        fill: #2dd4bf;
        stroke-width: 0px;
      }
    </style>
  </defs>
  <g id="LOGOTIPO_LUMOUS">
    <g id="LOGOTIPO">
      <path class="cls-1" d="M249.12,222.79c-14.5,0-26.25,13.1-26.25,29.27s11.75,29.27,26.25,29.27,26.25-13.1,26.25-29.27-11.75-29.27-26.25-29.27ZM262.12,256.26c-1.3,4.32-5.69,13.2-13.08,13.23-8.16.03-15.27-10.73-12.74-15.88.96-1.94,3.56-3.6,6.2-3.42,2.96.19,5.7,2.67,6.54,6.23,3.6-3.96,2.92-9.23,0-11.36-3.22-2.36-9.94-1.48-13.08,3.58,1.44-6.29,3.93-8.43,6.03-9.18,2.23-.8,4.81-.31,5.16-1.25.32-.85-1.48-2.19-2.99-3.16,1.63-.25,7.99-1.04,13.15,2.53,8.44,5.85,5.17,17.52,4.82,18.68Z"/>
      <path class="cls-1" d="M79.41,282.77c-3.64-.08-8.92-.19-11.55-3.65-3.3-4.34,1.02-9.4,2.43-24.32.6-6.35.99-10.95-.61-16.42-2.08-7.12-6.46-12.02-9.57-14.86,3.39-.85,8.78-1.69,15.04-.34,3.4.73,5.57,1.9,7.9,4.26,3.39,3.43,4.26,7.9,4.26,9.73,0,3.65-.34,4.81-1.22,10.94-.61,4.26-.42,7.35,0,10.34.5,3.56,1.03,7.04,3.42,8.1,1.28.57,2.21.32,3.27-.2,4.76-2.3,4.68-12.51,4.26-18.85-.38-5.7-2.19-14.2-6.1-24.32h26.42c-2.12,7.42-4.27,18.03-4.07,30.83.18,11.2,2.1,19.94,4.07,26.82-6.78.03-13.55.06-20.33.1v-4.56c-2.19,1.8-8.64,6.59-17.63,6.39Z"/>
      <path class="cls-1" d="M296.72,282.99c-3.64-.08-8.92-.19-11.55-3.65-3.3-4.34,1.02-9.4,2.43-24.32.6-6.35.99-10.95-.61-16.42-2.08-7.12-6.46-12.02-9.57-14.86,3.39-.85,8.78-1.69,15.04-.34,3.4.73,5.57,1.9,7.9,4.26,3.39,3.43,4.26,7.9,4.26,9.73,0,3.65-.34,4.81-1.22,10.94-.61,4.26-.42,7.35,0,10.34.5,3.56,1.03,7.04,3.42,8.1,1.28.57,2.21.32,3.27-.2,4.76-2.3,4.68-12.51,4.26-18.85-.38-5.7-2.19-14.2-6.1-24.32h26.42c-2.12,7.42-4.27,18.03-4.07,30.83.18,11.2,2.1,19.94,4.07,26.82-6.78.03-13.55.06-20.33.1v-4.56c-2.19,1.8-8.64,6.59-17.63,6.39Z"/>
      <path class="cls-1" d="M207.25,229.64c7.53,7.81,4.65,22.57,6.23,38.61.27,2.75.61,4.94.77,5.89.47,2.8.98,4.8,1.37,6.77h-18.97v-28.82c0-8.58-3.19-13.46-8.19-13.46-5.49,0-9.48,5.32-9.48,14.56v27.72h-15.23v-28.82c0-8.58-3.09-13.46-8.19-13.46-5.59,0-9.58,5.32-9.58,14.56v27.72h-18.97c1.01-4.86,1.85-8.27,2.39-13.91,1.64-17.11.01-32.08-2.39-43.84h18.07v6.27c.93-.72,9.6-7.28,19.82-4.15,5.32,1.63,8.57,5.13,9.96,6.85,1.69-1.88,5.18-5.22,10.59-6.85,6.97-2.11,16.46-1.18,21.79,4.36Z"/>
      <path class="cls-1" d="M342.19,276.7l6.18-14.1c5.42,3.36,13.34,5.42,20.49,5.42s9.22-1.52,9.22-4.01c0-7.92-34.7,1.08-34.7-22.44,0-11.06,10.19-19.52,28.62-19.52,8.24,0,17.35,1.73,23.2,4.99l-6.18,13.99c-5.86-3.25-11.71-4.34-16.91-4.34-6.94,0-9.43,1.95-9.43,4.12,0,8.13,34.59-.65,34.59,22.66,0,10.84-9.97,19.3-29.06,19.3-9.98,0-20.28-2.49-26.02-6.07Z"/>
      <path class="cls-1" d="M7.38,214.69h20.74c-.79,7.13-1.77,16.68-2.68,28.02-1.4,17.43-1.16,20.71,1.25,23.04,7.36,7.12,20.75-5,28.64,2.49,3.43,3.26,3.58,8.77,3.11,13.08H6.75c1.57-8.36,2.82-18.21,3.11-29.27.36-13.68-.84-27.55-2.49-37.36Z"/>
    </g>
    <g id="SIMBOLO">
      <g id="FIRE_SIMBOLO">
        <path id="FIRE_2" class="cls-1" d="M189.33,55.23c-1.82-24.47,8.32-42.91,12.75-50,4.29,38.77,18.27,59.59,30.73,71.52,15.95,15.27,28.83,15.43,39.21,33.69,8.27,14.56,12.57,36.45,3.68,57.28-8.3,19.45-24.15,28.73-29.47,31.56,9.92-37.76,3.22-57.67-5.14-68.93-10.5-14.14-23.3-14.19-37.06-34.31-12.77-18.66-14.41-37.11-14.68-40.81Z"/>
        <path id="FIRE_1" class="cls-1" d="M170.01,176.29c-3.58-2.6-12.71-9.86-18.68-22.67-1.9-4.08-4.8-11.55-5.51-23.89-1.76-30.61,12.34-50.17,8.58-52.38-3.47-2.04-17.26,12.05-25.42,28.18-3.02,5.98-8.37,16.81-8.58,31.86-.32,23.96,12.45,40.38,15.93,44.72,3.94,4.91,8.12,8.91,12.43,12.19,6.11,4.66,17.4,10.93,31.37,14.15,23.92,5.51,45.15.86,54.22-3.68,0,0-2.25-9.2-4-16.57-.54-2.28-3.58-3.97-6.01-3.25-19.4,5.73-35.32.52-37.16-.09-7.17-2.39-12.38-5.11-17.15-8.58Z"/>
      </g>
      <g id="HOME_SIMBOLO">
        <polygon id="TELHADO" class="cls-1" points="196.56 124.96 234.03 146.59 234.03 141.74 217.23 132.04 217.23 121.06 213.03 121.06 213.03 129.62 196.56 120.11 158.97 141.81 158.97 141.81 158.97 146.62 159.01 146.64 196.56 124.96"/>
        <rect id="PORTA" class="cls-1" x="175.09" y="143.56" width="13.5" height="23.08"/>
        <g id="JANELAS">
          <rect id="JANELA_4" class="cls-1" x="209.33" y="143.55" width="8.4" height="8.32"/>
          <rect id="JANELA_3" class="cls-1" x="198.52" y="143.55" width="8.4" height="8.32"/>
          <rect id="JANELA_2" class="cls-1" x="209.33" y="154.37" width="8.4" height="8.32"/>
          <rect id="JANELA_1" class="cls-1" x="198.52" y="154.37" width="8.4" height="8.32"/>
        </g>
      </g>
    </g>
  </g>
</svg>