<?xml version="1.0" encoding="UTF-8"?>
<svg id="LOGO_BRANCA" xmlns="http://www.w3.org/2000/svg" viewBox="0 0 1000 1000">
  <defs>
    <style>
      .cls-1 {
        fill: #f2f2f2;
        stroke-width: 0px;
      }
    </style>
  </defs>
  <g id="LOGO_LUMOUS">
    <g id="FIRE_SIMBOLO">
      <path id="FIRE_2" class="cls-1" d="M452.54,275.46c-7.74-103.96,35.33-182.28,54.14-212.4,18.21,164.68,77.58,253.11,130.52,303.79,67.74,64.85,122.47,65.54,166.53,143.11,35.13,61.85,53.38,154.81,15.61,243.29-35.26,82.6-102.58,122.05-125.18,134.04,42.13-160.4,13.69-244.94-21.83-292.76-44.61-60.05-98.96-60.26-157.42-145.71-54.24-79.28-61.19-157.63-62.36-173.36Z"/>
      <path id="FIRE_1" class="cls-1" d="M370.49,789.69c-15.21-11.05-54-41.87-79.36-96.28-8.08-17.33-20.4-49.07-23.42-101.48-7.49-130.01,52.4-213.1,36.43-222.47-14.74-8.65-73.33,51.19-107.98,119.69-12.85,25.4-35.57,71.41-36.43,135.31-1.37,101.76,52.89,171.54,67.65,189.95,16.73,20.86,34.5,37.84,52.8,51.79,25.97,19.8,73.9,46.43,133.25,60.1,101.59,23.4,191.76,3.65,230.28-15.61,0,0-9.56-39.07-16.98-70.37-2.3-9.7-15.22-16.84-25.53-13.8-82.39,24.32-150.04,2.2-157.85-.4-30.44-10.15-52.57-21.69-72.86-36.43Z"/>
    </g>
    <g id="HOME_SIMBOLO">
      <polygon id="TELHADO" class="cls-1" points="483.27 571.65 642.43 663.54 642.43 642.94 571.06 601.73 571.06 555.07 553.22 555.07 553.22 591.43 483.27 551.05 323.59 643.24 323.59 643.24 323.59 663.64 323.76 663.74 483.27 571.65"/>
      <rect id="PORTA" class="cls-1" x="392.07" y="650.63" width="57.33" height="98.02"/>
      <g id="JANELAS">
        <rect id="JANELA_4" class="cls-1" x="537.5" y="650.63" width="35.68" height="35.33"/>
        <rect id="JANELA_3" class="cls-1" x="491.57" y="650.63" width="35.68" height="35.33"/>
        <rect id="JANELA_2" class="cls-1" x="537.5" y="696.56" width="35.68" height="35.33"/>
        <rect id="JANELA_1" class="cls-1" x="491.57" y="696.56" width="35.68" height="35.33"/>
      </g>
    </g>
  </g>
</svg>